G04 #@! TF.GenerationSoftware,KiCad,Pcbnew,10.0.4*
G04 #@! TF.CreationDate,2026-07-17T21:57:44-04:00*
G04 #@! TF.ProjectId,amp,616d702e-6b69-4636-9164-5f7063625858,rev?*
G04 #@! TF.SameCoordinates,Original*
G04 #@! TF.FileFunction,Copper,L1,Top*
G04 #@! TF.FilePolarity,Positive*
%FSLAX46Y46*%
G04 Gerber Fmt 4.6, Leading zero omitted, Abs format (unit mm)*
G04 Created by KiCad (PCBNEW 10.0.4) date 2026-07-17 21:57:44*
%MOMM*%
%LPD*%
G01*
G04 APERTURE LIST*
G04 Aperture macros list*
%AMRoundRect*
0 Rectangle with rounded corners*
0 $1 Rounding radius*
0 $2 $3 $4 $5 $6 $7 $8 $9 X,Y pos of 4 corners*
0 Add a 4 corners polygon primitive as box body*
4,1,4,$2,$3,$4,$5,$6,$7,$8,$9,$2,$3,0*
0 Add four circle primitives for the rounded corners*
1,1,$1+$1,$2,$3*
1,1,$1+$1,$4,$5*
1,1,$1+$1,$6,$7*
1,1,$1+$1,$8,$9*
0 Add four rect primitives between the rounded corners*
20,1,$1+$1,$2,$3,$4,$5,0*
20,1,$1+$1,$4,$5,$6,$7,0*
20,1,$1+$1,$6,$7,$8,$9,0*
20,1,$1+$1,$8,$9,$2,$3,0*%
G04 Aperture macros list end*
G04 #@! TA.AperFunction,ComponentPad*
%ADD10R,1.600000X1.600000*%
G04 #@! TD*
G04 #@! TA.AperFunction,ComponentPad*
%ADD11C,1.600000*%
G04 #@! TD*
G04 #@! TA.AperFunction,ComponentPad*
%ADD12RoundRect,0.250000X-0.637151X-0.446138X0.446138X-0.637151X0.637151X0.446138X-0.446138X0.637151X0*%
G04 #@! TD*
G04 #@! TA.AperFunction,ComponentPad*
%ADD13RoundRect,0.250000X0.550000X0.550000X-0.550000X0.550000X-0.550000X-0.550000X0.550000X-0.550000X0*%
G04 #@! TD*
G04 #@! TA.AperFunction,ComponentPad*
%ADD14R,1.700000X1.700000*%
G04 #@! TD*
G04 #@! TA.AperFunction,ComponentPad*
%ADD15C,1.700000*%
G04 #@! TD*
G04 #@! TA.AperFunction,ComponentPad*
%ADD16C,3.000000*%
G04 #@! TD*
G04 #@! TA.AperFunction,ComponentPad*
%ADD17O,4.500000X1.500000*%
G04 #@! TD*
G04 #@! TA.AperFunction,ViaPad*
%ADD18C,0.600000*%
G04 #@! TD*
G04 #@! TA.AperFunction,Conductor*
%ADD19C,0.500000*%
G04 #@! TD*
G04 #@! TA.AperFunction,Conductor*
%ADD20C,1.000000*%
G04 #@! TD*
G04 #@! TA.AperFunction,Conductor*
%ADD21C,0.250000*%
G04 #@! TD*
G04 #@! TA.AperFunction,Conductor*
%ADD22C,0.300000*%
G04 #@! TD*
G04 APERTURE END LIST*
D10*
X139000000Y-102000000D03*
D11*
X139000000Y-99500000D03*
X139000000Y-97000000D03*
X139000000Y-94500000D03*
D12*
X146000000Y-96000000D03*
D11*
X149446827Y-96607769D03*
D13*
X133367677Y-50500000D03*
D11*
X128367677Y-50500000D03*
X175813806Y-60629602D03*
X166000000Y-58000000D03*
D14*
X165780000Y-53500000D03*
D15*
X163240000Y-53500000D03*
X160700000Y-53500000D03*
X158160000Y-53500000D03*
X155620000Y-53500000D03*
X153080000Y-53500000D03*
X150540000Y-53500000D03*
X148000000Y-53500000D03*
D11*
X155000000Y-58500000D03*
X164813807Y-61129602D03*
X127000000Y-109500000D03*
X127000000Y-104500000D03*
X139500000Y-53000000D03*
X139500000Y-48000000D03*
D14*
X95500000Y-104160000D03*
D15*
X95500000Y-94000000D03*
X95500000Y-101620000D03*
X95500000Y-99080000D03*
X95500000Y-96540000D03*
D14*
X144000000Y-52500000D03*
D15*
X144000000Y-49960000D03*
D14*
X93500000Y-63000000D03*
D15*
X133140000Y-100960000D03*
X130600000Y-100960000D03*
X133140000Y-108580000D03*
X130600000Y-108580000D03*
X133140000Y-106040000D03*
X133140000Y-103500000D03*
X130600000Y-93340000D03*
X130600000Y-95880000D03*
X130600000Y-103500000D03*
X130600000Y-106040000D03*
X133140000Y-93340000D03*
X133140000Y-95880000D03*
X133140000Y-111120000D03*
D14*
X130600000Y-111120000D03*
D15*
X133140000Y-98420000D03*
X130600000Y-98420000D03*
D14*
X100000000Y-57795000D03*
D15*
X100000000Y-60335000D03*
X100000000Y-62875000D03*
X100000000Y-65415000D03*
X100000000Y-67955000D03*
X100000000Y-70495000D03*
X100000000Y-73035000D03*
X100000000Y-75575000D03*
X100000000Y-78115000D03*
X100000000Y-80655000D03*
X100000000Y-83195000D03*
X100000000Y-85735000D03*
X100000000Y-88275000D03*
X100000000Y-90815000D03*
X100000000Y-93355000D03*
X100000000Y-95895000D03*
X100000000Y-98435000D03*
X100000000Y-100975000D03*
X100000000Y-103515000D03*
X100000000Y-106055000D03*
X100000000Y-108595000D03*
X100000000Y-111135000D03*
D14*
X179230000Y-82280000D03*
D15*
X179230000Y-79740000D03*
X179230000Y-77200000D03*
X179230000Y-64500000D03*
X179230000Y-74660000D03*
X179230000Y-69580000D03*
X179230000Y-72120000D03*
X179230000Y-67040000D03*
D16*
X77350000Y-82661400D03*
X77370000Y-60500000D03*
X77350000Y-66431400D03*
X77370000Y-44270000D03*
X71000000Y-82661400D03*
X71020000Y-60500000D03*
X71000000Y-66431400D03*
X71020000Y-44270000D03*
X83700000Y-82661400D03*
X83720000Y-60500000D03*
X83700000Y-66431400D03*
X83720000Y-44270000D03*
D14*
X122860000Y-57795000D03*
D15*
X122860000Y-60335000D03*
X122860000Y-62875000D03*
X122860000Y-65415000D03*
X122860000Y-67955000D03*
X122860000Y-70495000D03*
X122860000Y-73035000D03*
X122860000Y-75575000D03*
X122860000Y-78115000D03*
X122860000Y-80655000D03*
X122860000Y-83195000D03*
X122860000Y-85735000D03*
X122860000Y-88275000D03*
X122860000Y-90815000D03*
X122860000Y-93355000D03*
X122860000Y-95895000D03*
X122860000Y-98435000D03*
X122860000Y-100975000D03*
X122860000Y-103515000D03*
X122860000Y-106055000D03*
X122860000Y-108595000D03*
X122860000Y-111135000D03*
D14*
X93500000Y-81000000D03*
D17*
X178000000Y-93900000D03*
X178000000Y-102700000D03*
X178000000Y-110000000D03*
D18*
X111000000Y-46000000D03*
X65000000Y-46000000D03*
X85000000Y-86000000D03*
X169000000Y-55000000D03*
X146000000Y-103000000D03*
X65000000Y-76000000D03*
X65000000Y-86500000D03*
X85000000Y-96000000D03*
X136000000Y-105000000D03*
X95000000Y-46000000D03*
X65000000Y-96000000D03*
X137500000Y-60000000D03*
X75000000Y-96000000D03*
X126500000Y-105500000D03*
X125000000Y-112500000D03*
X95000000Y-106000000D03*
X113500000Y-55500000D03*
X75000000Y-106000000D03*
X179500000Y-90000000D03*
X138000000Y-110500000D03*
X85000000Y-106000000D03*
X159500000Y-46500000D03*
X65000000Y-106000000D03*
X178500000Y-46500000D03*
X120500000Y-47500000D03*
X178500000Y-55000000D03*
X146000000Y-110500000D03*
X113000000Y-67500000D03*
X163000000Y-60000000D03*
X73500000Y-53500000D03*
X129500000Y-63000000D03*
X64500000Y-66500000D03*
X64500000Y-56500000D03*
X157500000Y-55500000D03*
X87500000Y-53500000D03*
X169000000Y-46500000D03*
X139500000Y-45500000D03*
X147500000Y-62000000D03*
X128195000Y-83195000D03*
X132250000Y-83250000D03*
X128200558Y-81799442D03*
X132000000Y-81500000D03*
X168500000Y-95000000D03*
X171500000Y-98000000D03*
D19*
X146000000Y-96000000D02*
X148000000Y-94000000D01*
X148000000Y-94000000D02*
X160500000Y-94000000D01*
X160500000Y-94000000D02*
X163500000Y-97000000D01*
X168500000Y-97000000D02*
X181500000Y-84000000D01*
X163500000Y-97000000D02*
X168500000Y-97000000D01*
X181500000Y-84000000D02*
X181500000Y-69310000D01*
X181500000Y-69310000D02*
X179230000Y-67040000D01*
D20*
X140000000Y-99500000D02*
X140500000Y-99500000D01*
X144000000Y-96000000D02*
X146000000Y-96000000D01*
X140500000Y-99500000D02*
X144000000Y-96000000D01*
D21*
X166000000Y-58000000D02*
X166000000Y-53720000D01*
X166000000Y-53720000D02*
X165780000Y-53500000D01*
X155620000Y-53500000D02*
X155620000Y-57880000D01*
X155620000Y-57880000D02*
X155000000Y-58500000D01*
D20*
X140000000Y-99500000D02*
X139000000Y-99500000D01*
D21*
X132000000Y-81500000D02*
X138000000Y-81500000D01*
X158000000Y-84500000D02*
X168500000Y-95000000D01*
X138000000Y-81500000D02*
X141000000Y-84500000D01*
X141000000Y-84500000D02*
X158000000Y-84500000D01*
D20*
X141450000Y-53000000D02*
X143225000Y-54775000D01*
X144000000Y-52500000D02*
X144000000Y-54000000D01*
X144000000Y-54000000D02*
X143225000Y-54775000D01*
X148642032Y-55050000D02*
X143500000Y-55050000D01*
X139500000Y-53000000D02*
X141450000Y-53000000D01*
X143225000Y-54775000D02*
X143500000Y-55050000D01*
X122860000Y-60335000D02*
X132632677Y-60335000D01*
X132632677Y-60335000D02*
X137917677Y-55050000D01*
X150540000Y-53500000D02*
X150085786Y-53500000D01*
X150085786Y-53500000D02*
X149550000Y-54035786D01*
X149550000Y-54035786D02*
X149550000Y-54142032D01*
X149550000Y-54142032D02*
X148642032Y-55050000D01*
X143500000Y-55050000D02*
X137917677Y-55050000D01*
X137917677Y-55050000D02*
X133367677Y-50500000D01*
D21*
X119145000Y-92180000D02*
X122860000Y-95895000D01*
X95500000Y-94000000D02*
X97320000Y-92180000D01*
X97320000Y-92180000D02*
X119145000Y-92180000D01*
D20*
X130270000Y-111450000D02*
X130600000Y-111120000D01*
X133140000Y-111120000D02*
X141500000Y-102760000D01*
D19*
X121560000Y-112435000D02*
X122860000Y-111135000D01*
X95500000Y-101620000D02*
X98700000Y-104820000D01*
D20*
X141500000Y-99500000D02*
X140000000Y-99500000D01*
X130600000Y-111120000D02*
X133140000Y-111120000D01*
X122860000Y-111135000D02*
X126335000Y-111135000D01*
D19*
X98700000Y-111673478D02*
X99461522Y-112435000D01*
X98700000Y-104820000D02*
X98700000Y-111673478D01*
D20*
X141500000Y-102760000D02*
X141500000Y-99500000D01*
D19*
X99461522Y-112435000D02*
X121560000Y-112435000D01*
D20*
X126650000Y-111450000D02*
X130270000Y-111450000D01*
X126335000Y-111135000D02*
X126650000Y-111450000D01*
D21*
X121685000Y-99800000D02*
X96220000Y-99800000D01*
X122860000Y-100975000D02*
X121685000Y-99800000D01*
X96220000Y-99800000D02*
X95500000Y-99080000D01*
X96220000Y-97260000D02*
X95500000Y-96540000D01*
X121685000Y-97260000D02*
X96220000Y-97260000D01*
X122860000Y-98435000D02*
X121685000Y-97260000D01*
D22*
X91000000Y-60500000D02*
X93500000Y-63000000D01*
X83720000Y-60500000D02*
X91000000Y-60500000D01*
D21*
X126500000Y-94455000D02*
X122860000Y-90815000D01*
X130600000Y-100960000D02*
X126500000Y-96860000D01*
X126500000Y-96860000D02*
X126500000Y-94455000D01*
X130600000Y-93340000D02*
X124360000Y-87100000D01*
X122373299Y-87100000D02*
X121685000Y-87788299D01*
X121685000Y-92180000D02*
X122860000Y-93355000D01*
X121685000Y-87788299D02*
X121685000Y-92180000D01*
X124360000Y-87100000D02*
X122373299Y-87100000D01*
X130600000Y-95880000D02*
X131775000Y-94705000D01*
X131775000Y-94705000D02*
X131775000Y-87775000D01*
X129735000Y-85735000D02*
X122860000Y-85735000D01*
X131775000Y-87775000D02*
X129735000Y-85735000D01*
X134315000Y-101446701D02*
X134315000Y-100685000D01*
X132570000Y-85285000D02*
X122860000Y-75575000D01*
X136000000Y-99000000D02*
X136000000Y-97500000D01*
X130600000Y-103500000D02*
X131965000Y-102135000D01*
X134315000Y-100685000D02*
X136000000Y-99000000D01*
X139000000Y-94500000D02*
X139000000Y-90000000D01*
X134285000Y-85285000D02*
X132570000Y-85285000D01*
X133626701Y-102135000D02*
X134315000Y-101446701D01*
X131965000Y-102135000D02*
X133626701Y-102135000D01*
X136000000Y-97500000D02*
X139000000Y-94500000D01*
X139000000Y-90000000D02*
X134285000Y-85285000D01*
X128195000Y-83195000D02*
X122860000Y-83195000D01*
X137500000Y-100801701D02*
X137500000Y-98898097D01*
X131965000Y-104675000D02*
X133626701Y-104675000D01*
X141500000Y-94500000D02*
X139000000Y-97000000D01*
X133626701Y-104675000D02*
X137500000Y-100801701D01*
X130600000Y-106040000D02*
X131965000Y-104675000D01*
X141500000Y-89000000D02*
X141500000Y-94500000D01*
X139000000Y-97398097D02*
X139000000Y-97000000D01*
X137500000Y-98898097D02*
X139000000Y-97398097D01*
X132250000Y-83250000D02*
X135750000Y-83250000D01*
X135750000Y-83250000D02*
X141500000Y-89000000D01*
X122860000Y-103515000D02*
X124240000Y-102135000D01*
X124240000Y-102135000D02*
X131086701Y-102135000D01*
X131965000Y-97055000D02*
X133140000Y-95880000D01*
X131965000Y-101256701D02*
X131965000Y-97055000D01*
X131086701Y-102135000D02*
X131965000Y-101256701D01*
X129425000Y-94840000D02*
X122860000Y-88275000D01*
X129425000Y-97245000D02*
X129425000Y-94840000D01*
X130600000Y-98420000D02*
X129425000Y-97245000D01*
X123588604Y-74400000D02*
X106445000Y-74400000D01*
X179230000Y-82280000D02*
X176950000Y-80000000D01*
X176950000Y-80000000D02*
X129500000Y-80000000D01*
X124450000Y-74950000D02*
X124138604Y-74950000D01*
X124138604Y-74950000D02*
X123588604Y-74400000D01*
X106445000Y-74400000D02*
X100000000Y-67955000D01*
X129500000Y-80000000D02*
X124450000Y-74950000D01*
X173990000Y-74500000D02*
X124325000Y-74500000D01*
X179230000Y-79740000D02*
X173990000Y-74500000D01*
X124325000Y-74500000D02*
X122860000Y-73035000D01*
X174530000Y-72500000D02*
X123986701Y-72500000D01*
X122563299Y-71860000D02*
X121685000Y-70981701D01*
X179230000Y-77200000D02*
X174530000Y-72500000D01*
X121685000Y-66590000D02*
X122860000Y-65415000D01*
X121685000Y-70981701D02*
X121685000Y-66590000D01*
X123346701Y-71860000D02*
X122563299Y-71860000D01*
X123986701Y-72500000D02*
X123346701Y-71860000D01*
X178743299Y-68405000D02*
X174838299Y-64500000D01*
X174838299Y-64500000D02*
X124485000Y-64500000D01*
X180405000Y-73485000D02*
X180405000Y-69093299D01*
X124485000Y-64500000D02*
X122860000Y-62875000D01*
X179716701Y-68405000D02*
X178743299Y-68405000D01*
X180405000Y-69093299D02*
X179716701Y-68405000D01*
X179230000Y-74660000D02*
X180405000Y-73485000D01*
X174955000Y-67955000D02*
X122860000Y-67955000D01*
X176500000Y-69500000D02*
X174955000Y-67955000D01*
X179230000Y-69580000D02*
X179150000Y-69500000D01*
X179150000Y-69500000D02*
X176500000Y-69500000D01*
X177605000Y-70495000D02*
X122860000Y-70495000D01*
X179230000Y-72120000D02*
X177605000Y-70495000D01*
X122860000Y-80655000D02*
X124004442Y-81799442D01*
X171500000Y-98000000D02*
X176200000Y-102700000D01*
X124004442Y-81799442D02*
X128200558Y-81799442D01*
X176200000Y-102700000D02*
X178000000Y-102700000D01*
D22*
X77350000Y-82661400D02*
X83700000Y-82661400D01*
X85361400Y-81000000D02*
X83700000Y-82661400D01*
X93500000Y-81000000D02*
X85361400Y-81000000D01*
G04 #@! TA.AperFunction,Conductor*
G36*
X182442539Y-41520185D02*
G01*
X182488294Y-41572989D01*
X182499500Y-41624500D01*
X182499500Y-112875500D01*
X182479815Y-112942539D01*
X182427011Y-112988294D01*
X182375500Y-112999500D01*
X122356229Y-112999500D01*
X122289190Y-112979815D01*
X122243435Y-112927011D01*
X122233491Y-112857853D01*
X122262516Y-112794297D01*
X122268530Y-112787836D01*
X122551194Y-112505171D01*
X122612513Y-112471689D01*
X122658265Y-112470382D01*
X122753713Y-112485500D01*
X122753715Y-112485500D01*
X122966286Y-112485500D01*
X122966287Y-112485500D01*
X123176243Y-112452246D01*
X123378412Y-112386557D01*
X123567816Y-112290051D01*
X123588466Y-112275048D01*
X123743734Y-112162241D01*
X123744364Y-112163108D01*
X123803419Y-112136641D01*
X123820200Y-112135500D01*
X125869217Y-112135500D01*
X125936256Y-112155185D01*
X125956893Y-112171814D01*
X125986248Y-112201169D01*
X126012219Y-112227140D01*
X126162485Y-112327544D01*
X126176086Y-112336632D01*
X126296617Y-112386557D01*
X126358164Y-112412051D01*
X126418125Y-112423978D01*
X126464152Y-112433133D01*
X126551456Y-112450500D01*
X126551459Y-112450500D01*
X126551460Y-112450500D01*
X126748540Y-112450500D01*
X129583705Y-112450500D01*
X129627039Y-112458319D01*
X129642508Y-112464088D01*
X129642511Y-112464088D01*
X129642517Y-112464091D01*
X129702127Y-112470500D01*
X131497872Y-112470499D01*
X131557483Y-112464091D01*
X131692331Y-112413796D01*
X131807546Y-112327546D01*
X131893796Y-112212331D01*
X131897960Y-112201165D01*
X131911228Y-112183441D01*
X131920428Y-112163297D01*
X131931758Y-112156015D01*
X131939829Y-112145234D01*
X131960577Y-112137495D01*
X131979206Y-112125523D01*
X132001121Y-112122371D01*
X132005293Y-112120816D01*
X132014141Y-112120500D01*
X132179800Y-112120500D01*
X132246839Y-112140185D01*
X132259365Y-112149493D01*
X132432179Y-112275048D01*
X132432181Y-112275049D01*
X132432184Y-112275051D01*
X132621588Y-112371557D01*
X132823757Y-112437246D01*
X133033713Y-112470500D01*
X133033714Y-112470500D01*
X133246286Y-112470500D01*
X133246287Y-112470500D01*
X133456243Y-112437246D01*
X133658412Y-112371557D01*
X133847816Y-112275051D01*
X133869789Y-112259086D01*
X134019786Y-112150109D01*
X134019788Y-112150106D01*
X134019792Y-112150104D01*
X134170104Y-111999792D01*
X134170106Y-111999788D01*
X134170109Y-111999786D01*
X134295048Y-111827820D01*
X134295047Y-111827820D01*
X134295051Y-111827816D01*
X134391557Y-111638412D01*
X134457246Y-111436243D01*
X134490500Y-111226287D01*
X134490500Y-111226285D01*
X134491262Y-111221475D01*
X134492321Y-111221642D01*
X134515361Y-111161172D01*
X134526416Y-111148503D01*
X135773342Y-109901577D01*
X175249500Y-109901577D01*
X175249500Y-110098422D01*
X175280290Y-110292826D01*
X175341117Y-110480029D01*
X175410696Y-110616585D01*
X175430476Y-110655405D01*
X175546172Y-110814646D01*
X175685354Y-110953828D01*
X175844595Y-111069524D01*
X175927455Y-111111743D01*
X176019970Y-111158882D01*
X176019972Y-111158882D01*
X176019975Y-111158884D01*
X176120317Y-111191487D01*
X176207173Y-111219709D01*
X176401578Y-111250500D01*
X176401583Y-111250500D01*
X179598422Y-111250500D01*
X179792826Y-111219709D01*
X179980025Y-111158884D01*
X180155405Y-111069524D01*
X180314646Y-110953828D01*
X180453828Y-110814646D01*
X180569524Y-110655405D01*
X180658884Y-110480025D01*
X180719709Y-110292826D01*
X180726078Y-110252615D01*
X180750500Y-110098422D01*
X180750500Y-109901577D01*
X180719709Y-109707173D01*
X180658882Y-109519970D01*
X180569523Y-109344594D01*
X180567432Y-109341716D01*
X180453828Y-109185354D01*
X180314646Y-109046172D01*
X180155405Y-108930476D01*
X180117650Y-108911239D01*
X179980029Y-108841117D01*
X179792826Y-108780290D01*
X179598422Y-108749500D01*
X179598417Y-108749500D01*
X176401583Y-108749500D01*
X176401578Y-108749500D01*
X176207173Y-108780290D01*
X176019970Y-108841117D01*
X175844594Y-108930476D01*
X175776295Y-108980099D01*
X175685354Y-109046172D01*
X175685352Y-109046174D01*
X175685351Y-109046174D01*
X175546174Y-109185351D01*
X175546174Y-109185352D01*
X175546172Y-109185354D01*
X175515800Y-109227157D01*
X175430476Y-109344594D01*
X175341117Y-109519970D01*
X175280290Y-109707173D01*
X175249500Y-109901577D01*
X135773342Y-109901577D01*
X142277139Y-103397782D01*
X142341497Y-103301463D01*
X142386632Y-103233914D01*
X142387421Y-103232009D01*
X142441576Y-103101268D01*
X142455392Y-103067913D01*
X142462051Y-103051836D01*
X142500500Y-102858541D01*
X142500500Y-102661460D01*
X142500500Y-99401459D01*
X142500500Y-99401456D01*
X142462052Y-99208170D01*
X142462051Y-99208169D01*
X142462051Y-99208165D01*
X142418982Y-99104188D01*
X142411514Y-99034720D01*
X142442789Y-98972241D01*
X142445834Y-98969085D01*
X143493767Y-97921153D01*
X170699500Y-97921153D01*
X170699500Y-98078846D01*
X170730261Y-98233489D01*
X170730264Y-98233501D01*
X170790602Y-98379172D01*
X170790609Y-98379185D01*
X170878210Y-98510288D01*
X170878213Y-98510292D01*
X170989707Y-98621786D01*
X170989711Y-98621789D01*
X171120814Y-98709390D01*
X171120827Y-98709397D01*
X171196908Y-98740910D01*
X171266503Y-98769737D01*
X171377716Y-98791858D01*
X171439623Y-98824241D01*
X171441203Y-98825793D01*
X175213181Y-102597771D01*
X175246666Y-102659094D01*
X175249500Y-102685452D01*
X175249500Y-102798422D01*
X175280290Y-102992826D01*
X175341117Y-103180029D01*
X175402245Y-103299999D01*
X175430476Y-103355405D01*
X175546172Y-103514646D01*
X175685354Y-103653828D01*
X175844595Y-103769524D01*
X175927455Y-103811743D01*
X176019970Y-103858882D01*
X176019972Y-103858882D01*
X176019975Y-103858884D01*
X176120317Y-103891487D01*
X176207173Y-103919709D01*
X176401578Y-103950500D01*
X176401583Y-103950500D01*
X179598422Y-103950500D01*
X179792826Y-103919709D01*
X179822707Y-103910000D01*
X179980025Y-103858884D01*
X180155405Y-103769524D01*
X180314646Y-103653828D01*
X180453828Y-103514646D01*
X180569524Y-103355405D01*
X180658884Y-103180025D01*
X180719709Y-102992826D01*
X180731476Y-102918531D01*
X180750500Y-102798422D01*
X180750500Y-102601577D01*
X180719709Y-102407173D01*
X180687162Y-102307006D01*
X180658884Y-102219975D01*
X180658882Y-102219972D01*
X180658882Y-102219970D01*
X180603337Y-102110957D01*
X180569524Y-102044595D01*
X180453828Y-101885354D01*
X180314646Y-101746172D01*
X180155405Y-101630476D01*
X180095400Y-101599902D01*
X179980029Y-101541117D01*
X179792826Y-101480290D01*
X179598422Y-101449500D01*
X179598417Y-101449500D01*
X176401583Y-101449500D01*
X176401578Y-101449500D01*
X176207172Y-101480291D01*
X176207169Y-101480291D01*
X176021091Y-101540752D01*
X175951250Y-101542747D01*
X175895092Y-101510502D01*
X172325793Y-97941203D01*
X172292308Y-97879880D01*
X172291887Y-97877864D01*
X172269737Y-97766503D01*
X172241990Y-97699516D01*
X172209397Y-97620827D01*
X172209390Y-97620814D01*
X172121789Y-97489711D01*
X172121786Y-97489707D01*
X172010292Y-97378213D01*
X172010288Y-97378210D01*
X171879185Y-97290609D01*
X171879172Y-97290602D01*
X171733501Y-97230264D01*
X171733489Y-97230261D01*
X171578845Y-97199500D01*
X171578842Y-97199500D01*
X171421158Y-97199500D01*
X171421155Y-97199500D01*
X171266510Y-97230261D01*
X171266498Y-97230264D01*
X171120827Y-97290602D01*
X171120814Y-97290609D01*
X170989711Y-97378210D01*
X170989707Y-97378213D01*
X170878213Y-97489707D01*
X170878210Y-97489711D01*
X170790609Y-97620814D01*
X170790602Y-97620827D01*
X170730264Y-97766498D01*
X170730261Y-97766510D01*
X170699500Y-97921153D01*
X143493767Y-97921153D01*
X144378102Y-97036819D01*
X144439425Y-97003334D01*
X144465783Y-97000500D01*
X144809677Y-97000500D01*
X144876716Y-97020185D01*
X144892110Y-97031868D01*
X144929446Y-97065093D01*
X144929447Y-97065093D01*
X144929450Y-97065096D01*
X145083874Y-97148362D01*
X145123826Y-97159692D01*
X145183261Y-97176548D01*
X145183270Y-97176550D01*
X145183277Y-97176552D01*
X146365063Y-97384932D01*
X146468114Y-97392440D01*
X146641704Y-97367013D01*
X146804750Y-97302239D01*
X146948464Y-97201610D01*
X147065096Y-97070550D01*
X147148362Y-96916126D01*
X147176552Y-96816723D01*
X147231437Y-96505451D01*
X148146827Y-96505451D01*
X148146827Y-96710086D01*
X148178836Y-96912186D01*
X148242070Y-97106794D01*
X148256851Y-97135804D01*
X149026863Y-96596637D01*
X149046827Y-96582657D01*
X149046827Y-96660430D01*
X149074086Y-96762163D01*
X149126747Y-96853375D01*
X149201221Y-96927849D01*
X149292433Y-96980510D01*
X149334325Y-96991735D01*
X148545005Y-97544424D01*
X148599935Y-97599354D01*
X148765477Y-97719628D01*
X148947795Y-97812524D01*
X149142409Y-97875759D01*
X149344510Y-97907769D01*
X149549144Y-97907769D01*
X149751244Y-97875759D01*
X149945855Y-97812525D01*
X149961442Y-97804583D01*
X149974862Y-97797744D01*
X149974862Y-97797743D01*
X149421716Y-97007769D01*
X149499488Y-97007769D01*
X149601221Y-96980510D01*
X149692433Y-96927849D01*
X149766907Y-96853375D01*
X149819568Y-96762163D01*
X149830793Y-96720268D01*
X150383482Y-97509589D01*
X150383483Y-97509590D01*
X150438407Y-97454667D01*
X150558686Y-97289118D01*
X150651582Y-97106800D01*
X150714817Y-96912186D01*
X150746827Y-96710086D01*
X150746827Y-96505451D01*
X150714817Y-96303351D01*
X150651583Y-96108741D01*
X150636801Y-96079732D01*
X149846827Y-96632877D01*
X149846827Y-96555108D01*
X149819568Y-96453375D01*
X149766907Y-96362163D01*
X149692433Y-96287689D01*
X149601221Y-96235028D01*
X149559324Y-96223802D01*
X150348647Y-95671112D01*
X150293718Y-95616183D01*
X150128176Y-95495909D01*
X149945858Y-95403013D01*
X149751244Y-95339778D01*
X149549144Y-95307769D01*
X149344510Y-95307769D01*
X149142408Y-95339779D01*
X149142405Y-95339779D01*
X148947805Y-95403009D01*
X148918789Y-95417793D01*
X149471937Y-96207769D01*
X149394166Y-96207769D01*
X149292433Y-96235028D01*
X149201221Y-96287689D01*
X149126747Y-96362163D01*
X149074086Y-96453375D01*
X149062860Y-96495269D01*
X148510170Y-95705947D01*
X148455238Y-95760879D01*
X148334969Y-95926416D01*
X148242071Y-96108737D01*
X148178836Y-96303351D01*
X148146827Y-96505451D01*
X147231437Y-96505451D01*
X147369259Y-95723819D01*
X147400284Y-95661219D01*
X147403668Y-95657698D01*
X148274548Y-94786819D01*
X148335871Y-94753334D01*
X148362229Y-94750500D01*
X160137770Y-94750500D01*
X160204809Y-94770185D01*
X160225451Y-94786819D01*
X163021585Y-97582952D01*
X163039901Y-97595190D01*
X163048997Y-97601268D01*
X163144498Y-97665080D01*
X163144502Y-97665082D01*
X163144505Y-97665084D01*
X163186433Y-97682451D01*
X163281088Y-97721659D01*
X163397241Y-97744763D01*
X163422047Y-97749697D01*
X163426081Y-97750500D01*
X163426082Y-97750500D01*
X168573920Y-97750500D01*
X168672663Y-97730858D01*
X168718913Y-97721658D01*
X168815598Y-97681610D01*
X168855493Y-97665085D01*
X168855493Y-97665084D01*
X168855495Y-97665084D01*
X168914737Y-97625500D01*
X168914737Y-97625499D01*
X168914739Y-97625499D01*
X168946576Y-97604226D01*
X168978416Y-97582952D01*
X170737743Y-95823625D01*
X172536114Y-94025255D01*
X172911369Y-93650000D01*
X175274016Y-93650000D01*
X176216980Y-93650000D01*
X176184066Y-93707008D01*
X176149991Y-93834174D01*
X176149991Y-93965826D01*
X176184066Y-94092992D01*
X176216980Y-94150000D01*
X175274016Y-94150000D01*
X175280781Y-94192716D01*
X175341581Y-94379837D01*
X175430904Y-94555143D01*
X175546555Y-94714321D01*
X175685678Y-94853444D01*
X175844856Y-94969095D01*
X176020164Y-95058418D01*
X176207294Y-95119221D01*
X176401618Y-95150000D01*
X177750000Y-95150000D01*
X177750000Y-94399999D01*
X178250000Y-94399999D01*
X178250000Y-95150000D01*
X179598382Y-95150000D01*
X179792705Y-95119221D01*
X179979835Y-95058418D01*
X180155143Y-94969095D01*
X180314321Y-94853444D01*
X180453444Y-94714321D01*
X180569095Y-94555143D01*
X180658418Y-94379837D01*
X180719218Y-94192716D01*
X180725984Y-94150000D01*
X179783020Y-94150000D01*
X179815934Y-94092992D01*
X179850009Y-93965826D01*
X179850009Y-93834174D01*
X179815934Y-93707008D01*
X179783020Y-93650000D01*
X180725984Y-93650000D01*
X180719218Y-93607283D01*
X180658418Y-93420162D01*
X180569095Y-93244856D01*
X180453444Y-93085678D01*
X180314321Y-92946555D01*
X180155143Y-92830904D01*
X179979835Y-92741581D01*
X179792705Y-92680778D01*
X179598382Y-92650000D01*
X178250000Y-92650000D01*
X178250000Y-93400001D01*
X177750000Y-93400001D01*
X177750000Y-92650000D01*
X176401618Y-92650000D01*
X176207294Y-92680778D01*
X176020164Y-92741581D01*
X175844856Y-92830904D01*
X175685678Y-92946555D01*
X175546555Y-93085678D01*
X175430904Y-93244856D01*
X175341581Y-93420162D01*
X175280781Y-93607283D01*
X175274016Y-93650000D01*
X172911369Y-93650000D01*
X172961986Y-93599383D01*
X182082948Y-84478419D01*
X182082947Y-84478419D01*
X182082951Y-84478416D01*
X182165084Y-84355495D01*
X182221658Y-84218913D01*
X182245000Y-84101567D01*
X182250500Y-84073920D01*
X182250500Y-69236079D01*
X182221659Y-69091092D01*
X182221658Y-69091091D01*
X182221658Y-69091087D01*
X182177761Y-68985109D01*
X182165086Y-68954509D01*
X182165085Y-68954507D01*
X182132186Y-68905270D01*
X182132185Y-68905268D01*
X182082956Y-68831589D01*
X182082952Y-68831584D01*
X180600175Y-67348807D01*
X180566690Y-67287484D01*
X180565383Y-67241728D01*
X180580500Y-67146285D01*
X180580500Y-66933713D01*
X180547246Y-66723757D01*
X180481557Y-66521588D01*
X180385051Y-66332184D01*
X180385049Y-66332181D01*
X180385048Y-66332179D01*
X180260109Y-66160213D01*
X180109786Y-66009890D01*
X179937817Y-65884949D01*
X179928504Y-65880204D01*
X179877707Y-65832230D01*
X179860912Y-65764409D01*
X179883449Y-65698274D01*
X179928507Y-65659232D01*
X179937555Y-65654622D01*
X179991716Y-65615270D01*
X179991717Y-65615270D01*
X179359408Y-64982962D01*
X179422993Y-64965925D01*
X179537007Y-64900099D01*
X179630099Y-64807007D01*
X179695925Y-64692993D01*
X179712962Y-64629408D01*
X180345270Y-65261717D01*
X180345270Y-65261716D01*
X180384622Y-65207554D01*
X180481095Y-65018217D01*
X180546757Y-64816130D01*
X180546757Y-64816127D01*
X180580000Y-64606246D01*
X180580000Y-64393753D01*
X180546757Y-64183872D01*
X180546757Y-64183869D01*
X180481095Y-63981782D01*
X180384624Y-63792449D01*
X180345270Y-63738282D01*
X180345269Y-63738282D01*
X179712962Y-64370590D01*
X179695925Y-64307007D01*
X179630099Y-64192993D01*
X179537007Y-64099901D01*
X179422993Y-64034075D01*
X179359409Y-64017037D01*
X179991716Y-63384728D01*
X179937550Y-63345375D01*
X179748217Y-63248904D01*
X179546129Y-63183242D01*
X179336246Y-63150000D01*
X179123754Y-63150000D01*
X178913872Y-63183242D01*
X178913869Y-63183242D01*
X178711782Y-63248904D01*
X178522439Y-63345380D01*
X178468282Y-63384727D01*
X178468282Y-63384728D01*
X179100591Y-64017037D01*
X179037007Y-64034075D01*
X178922993Y-64099901D01*
X178829901Y-64192993D01*
X178764075Y-64307007D01*
X178747037Y-64370591D01*
X178114728Y-63738282D01*
X178114727Y-63738282D01*
X178075380Y-63792439D01*
X177978904Y-63981782D01*
X177913242Y-64183869D01*
X177913242Y-64183872D01*
X177880000Y-64393753D01*
X177880000Y-64606246D01*
X177913242Y-64816127D01*
X177913242Y-64816130D01*
X177978904Y-65018217D01*
X178075375Y-65207550D01*
X178114728Y-65261716D01*
X178747037Y-64629408D01*
X178764075Y-64692993D01*
X178829901Y-64807007D01*
X178922993Y-64900099D01*
X179037007Y-64965925D01*
X179100590Y-64982962D01*
X178468282Y-65615269D01*
X178468282Y-65615270D01*
X178522452Y-65654626D01*
X178522451Y-65654626D01*
X178531495Y-65659234D01*
X178582292Y-65707208D01*
X178599087Y-65775029D01*
X178576550Y-65841164D01*
X178531499Y-65880202D01*
X178522182Y-65884949D01*
X178350213Y-66009890D01*
X178199890Y-66160213D01*
X178074949Y-66332182D01*
X177976951Y-66524512D01*
X177928977Y-66575307D01*
X177861156Y-66592102D01*
X177795021Y-66569564D01*
X177778786Y-66555897D01*
X175331449Y-64108560D01*
X175324159Y-64101270D01*
X175324157Y-64101267D01*
X175237032Y-64014142D01*
X175185808Y-63979915D01*
X175134585Y-63945688D01*
X175134582Y-63945686D01*
X175134579Y-63945685D01*
X175060902Y-63915168D01*
X175060900Y-63915167D01*
X175054091Y-63912347D01*
X175020751Y-63898537D01*
X174960328Y-63886518D01*
X174955605Y-63885578D01*
X174955603Y-63885578D01*
X174899909Y-63874500D01*
X174899906Y-63874500D01*
X174899905Y-63874500D01*
X124795452Y-63874500D01*
X124728413Y-63854815D01*
X124707771Y-63838181D01*
X124202428Y-63332838D01*
X124168943Y-63271515D01*
X124172177Y-63206841D01*
X124177246Y-63191243D01*
X124210500Y-62981287D01*
X124210500Y-62768713D01*
X124177246Y-62558757D01*
X124111557Y-62356588D01*
X124015051Y-62167184D01*
X124010149Y-62160437D01*
X123968326Y-62102871D01*
X123890109Y-61995213D01*
X123739786Y-61844890D01*
X123567820Y-61719951D01*
X123567115Y-61719591D01*
X123559054Y-61715485D01*
X123508259Y-61667512D01*
X123491463Y-61599692D01*
X123513999Y-61533556D01*
X123559054Y-61494515D01*
X123567816Y-61490051D01*
X123623380Y-61449682D01*
X123743734Y-61362241D01*
X123744364Y-61363108D01*
X123803419Y-61336641D01*
X123820200Y-61335500D01*
X132731219Y-61335500D01*
X132762243Y-61329328D01*
X132827865Y-61316275D01*
X132924513Y-61297051D01*
X132977842Y-61274961D01*
X133106591Y-61221632D01*
X133270459Y-61112139D01*
X133355314Y-61027284D01*
X163513807Y-61027284D01*
X163513807Y-61231919D01*
X163545816Y-61434015D01*
X163583842Y-61551046D01*
X163583842Y-61551047D01*
X164310969Y-61131240D01*
X164415415Y-61070936D01*
X164413807Y-61076941D01*
X164413807Y-61182263D01*
X164441066Y-61283996D01*
X164493727Y-61375208D01*
X164568201Y-61449682D01*
X164659413Y-61502343D01*
X164665413Y-61503950D01*
X163831271Y-61985544D01*
X163966910Y-62121183D01*
X163966912Y-62121184D01*
X164132457Y-62241461D01*
X164314775Y-62334357D01*
X164509389Y-62397592D01*
X164711490Y-62429602D01*
X164916124Y-62429602D01*
X165118218Y-62397592D01*
X165235251Y-62359565D01*
X164755142Y-61527993D01*
X164761146Y-61529602D01*
X164866468Y-61529602D01*
X164968201Y-61502343D01*
X165059413Y-61449682D01*
X165133887Y-61375208D01*
X165186548Y-61283996D01*
X165188156Y-61277994D01*
X165669748Y-62112135D01*
X165805389Y-61976497D01*
X165925666Y-61810951D01*
X166018562Y-61628633D01*
X166063066Y-61491667D01*
X166081797Y-61434019D01*
X166113807Y-61231919D01*
X166113807Y-61027284D01*
X166081797Y-60825188D01*
X166043771Y-60708156D01*
X165212199Y-61188263D01*
X165213807Y-61182263D01*
X165213807Y-61076941D01*
X165186548Y-60975208D01*
X165133887Y-60883996D01*
X165059413Y-60809522D01*
X164968201Y-60756861D01*
X164962196Y-60755252D01*
X165357049Y-60527284D01*
X174513806Y-60527284D01*
X174513806Y-60731919D01*
X174545815Y-60934015D01*
X174583841Y-61051046D01*
X174583841Y-61051047D01*
X175310968Y-60631240D01*
X175415414Y-60570936D01*
X175413806Y-60576941D01*
X175413806Y-60682263D01*
X175441065Y-60783996D01*
X175493726Y-60875208D01*
X175568200Y-60949682D01*
X175659412Y-61002343D01*
X175665412Y-61003950D01*
X174831270Y-61485544D01*
X174966909Y-61621183D01*
X174966911Y-61621184D01*
X175132456Y-61741461D01*
X175314774Y-61834357D01*
X175509388Y-61897592D01*
X175711489Y-61929602D01*
X175916123Y-61929602D01*
X176118217Y-61897592D01*
X176235250Y-61859565D01*
X175755141Y-61027993D01*
X175761145Y-61029602D01*
X175866467Y-61029602D01*
X175968200Y-61002343D01*
X176059412Y-60949682D01*
X176133886Y-60875208D01*
X176186547Y-60783996D01*
X176188155Y-60777994D01*
X176669747Y-61612135D01*
X176805388Y-61476497D01*
X176925665Y-61310951D01*
X177018561Y-61128633D01*
X177081796Y-60934019D01*
X177113806Y-60731919D01*
X177113806Y-60527284D01*
X177081796Y-60325188D01*
X177043770Y-60208156D01*
X176212198Y-60688263D01*
X176213806Y-60682263D01*
X176213806Y-60576941D01*
X176186547Y-60475208D01*
X176133886Y-60383996D01*
X176059412Y-60309522D01*
X175968200Y-60256861D01*
X175962195Y-60255252D01*
X176796340Y-59773658D01*
X176660702Y-59638020D01*
X176660700Y-59638019D01*
X176495155Y-59517742D01*
X176312837Y-59424846D01*
X176118223Y-59361611D01*
X175916123Y-59329602D01*
X175711489Y-59329602D01*
X175509388Y-59361611D01*
X175392360Y-59399637D01*
X175392359Y-59399637D01*
X175872469Y-60231210D01*
X175866467Y-60229602D01*
X175761145Y-60229602D01*
X175659412Y-60256861D01*
X175568200Y-60309522D01*
X175493726Y-60383996D01*
X175441065Y-60475208D01*
X175439456Y-60481210D01*
X174957863Y-59647066D01*
X174822220Y-59782710D01*
X174701946Y-59948252D01*
X174609050Y-60130570D01*
X174545815Y-60325184D01*
X174513806Y-60527284D01*
X165357049Y-60527284D01*
X165551478Y-60415031D01*
X165796341Y-60273658D01*
X165660703Y-60138020D01*
X165660701Y-60138019D01*
X165495156Y-60017742D01*
X165312838Y-59924846D01*
X165118224Y-59861611D01*
X164916124Y-59829602D01*
X164711490Y-59829602D01*
X164509389Y-59861611D01*
X164392361Y-59899637D01*
X164392360Y-59899637D01*
X164872470Y-60731210D01*
X164866468Y-60729602D01*
X164761146Y-60729602D01*
X164659413Y-60756861D01*
X164568201Y-60809522D01*
X164493727Y-60883996D01*
X164441066Y-60975208D01*
X164439457Y-60981210D01*
X163957864Y-60147066D01*
X163822221Y-60282710D01*
X163701947Y-60448252D01*
X163609051Y-60630570D01*
X163545816Y-60825184D01*
X163513807Y-61027284D01*
X133355314Y-61027284D01*
X133409816Y-60972782D01*
X133409816Y-60972780D01*
X133420024Y-60962573D01*
X133420025Y-60962570D01*
X138295779Y-56086819D01*
X138357102Y-56053334D01*
X138383460Y-56050500D01*
X148740574Y-56050500D01*
X148771598Y-56044328D01*
X148837220Y-56031275D01*
X148933868Y-56012051D01*
X148987197Y-55989961D01*
X149115946Y-55936632D01*
X149279814Y-55827139D01*
X149419171Y-55687782D01*
X149419171Y-55687780D01*
X149429379Y-55677573D01*
X149429380Y-55677570D01*
X150236015Y-54870936D01*
X150297336Y-54837453D01*
X150343087Y-54836146D01*
X150433713Y-54850500D01*
X150433715Y-54850500D01*
X150646286Y-54850500D01*
X150646287Y-54850500D01*
X150856243Y-54817246D01*
X151058412Y-54751557D01*
X151247816Y-54655051D01*
X151334138Y-54592335D01*
X151419786Y-54530109D01*
X151419788Y-54530106D01*
X151419792Y-54530104D01*
X151570104Y-54379792D01*
X151570106Y-54379788D01*
X151570109Y-54379786D01*
X151695048Y-54207820D01*
X151695047Y-54207820D01*
X151695051Y-54207816D01*
X151699514Y-54199054D01*
X151747488Y-54148259D01*
X151815308Y-54131463D01*
X151881444Y-54153999D01*
X151920486Y-54199056D01*
X151924951Y-54207820D01*
X152049890Y-54379786D01*
X152200213Y-54530109D01*
X152372179Y-54655048D01*
X152372181Y-54655049D01*
X152372184Y-54655051D01*
X152561588Y-54751557D01*
X152763757Y-54817246D01*
X152973713Y-54850500D01*
X152973714Y-54850500D01*
X153186286Y-54850500D01*
X153186287Y-54850500D01*
X153396243Y-54817246D01*
X153598412Y-54751557D01*
X153787816Y-54655051D01*
X153874138Y-54592335D01*
X153959786Y-54530109D01*
X153959788Y-54530106D01*
X153959792Y-54530104D01*
X154110104Y-54379792D01*
X154110106Y-54379788D01*
X154110109Y-54379786D01*
X154235048Y-54207820D01*
X154235047Y-54207820D01*
X154235051Y-54207816D01*
X154239514Y-54199054D01*
X154287488Y-54148259D01*
X154355308Y-54131463D01*
X154421444Y-54153999D01*
X154460486Y-54199056D01*
X154464951Y-54207820D01*
X154589890Y-54379786D01*
X154740213Y-54530109D01*
X154912181Y-54655050D01*
X154926792Y-54662494D01*
X154977589Y-54710467D01*
X154994500Y-54772980D01*
X154994500Y-57078254D01*
X154974815Y-57145293D01*
X154922011Y-57191048D01*
X154889898Y-57200727D01*
X154695465Y-57231522D01*
X154500776Y-57294781D01*
X154318386Y-57387715D01*
X154152786Y-57508028D01*
X154008028Y-57652786D01*
X153887715Y-57818386D01*
X153794781Y-58000776D01*
X153731522Y-58195465D01*
X153699500Y-58397648D01*
X153699500Y-58602351D01*
X153731522Y-58804534D01*
X153794781Y-58999223D01*
X153852391Y-59112287D01*
X153886730Y-59179681D01*
X153887715Y-59181613D01*
X154008028Y-59347213D01*
X154152786Y-59491971D01*
X154307749Y-59604556D01*
X154318390Y-59612287D01*
X154386648Y-59647066D01*
X154500776Y-59705218D01*
X154500778Y-59705218D01*
X154500781Y-59705220D01*
X154605137Y-59739127D01*
X154695465Y-59768477D01*
X154785328Y-59782710D01*
X154897648Y-59800500D01*
X154897649Y-59800500D01*
X155102351Y-59800500D01*
X155102352Y-59800500D01*
X155304534Y-59768477D01*
X155499219Y-59705220D01*
X155681610Y-59612287D01*
X155774590Y-59544732D01*
X155847213Y-59491971D01*
X155847215Y-59491968D01*
X155847219Y-59491966D01*
X155991966Y-59347219D01*
X155991968Y-59347215D01*
X155991971Y-59347213D01*
X156066126Y-59245145D01*
X156112287Y-59181610D01*
X156205220Y-58999219D01*
X156268477Y-58804534D01*
X156300500Y-58602352D01*
X156300500Y-58397648D01*
X156268477Y-58195466D01*
X156232901Y-58085976D01*
X156229216Y-58023471D01*
X156245500Y-57941606D01*
X156245500Y-54772980D01*
X156265185Y-54705941D01*
X156313208Y-54662494D01*
X156327818Y-54655050D01*
X156499786Y-54530109D01*
X156499788Y-54530106D01*
X156499792Y-54530104D01*
X156650104Y-54379792D01*
X156650106Y-54379788D01*
X156650109Y-54379786D01*
X156775048Y-54207820D01*
X156775047Y-54207820D01*
X156775051Y-54207816D01*
X156779514Y-54199054D01*
X156827488Y-54148259D01*
X156895308Y-54131463D01*
X156961444Y-54153999D01*
X157000486Y-54199056D01*
X157004951Y-54207820D01*
X157129890Y-54379786D01*
X157280213Y-54530109D01*
X157452179Y-54655048D01*
X157452181Y-54655049D01*
X157452184Y-54655051D01*
X157641588Y-54751557D01*
X157843757Y-54817246D01*
X158053713Y-54850500D01*
X158053714Y-54850500D01*
X158266286Y-54850500D01*
X158266287Y-54850500D01*
X158476243Y-54817246D01*
X158678412Y-54751557D01*
X158867816Y-54655051D01*
X158954138Y-54592335D01*
X159039786Y-54530109D01*
X159039788Y-54530106D01*
X159039792Y-54530104D01*
X159190104Y-54379792D01*
X159190106Y-54379788D01*
X159190109Y-54379786D01*
X159315048Y-54207820D01*
X159315047Y-54207820D01*
X159315051Y-54207816D01*
X159319514Y-54199054D01*
X159367488Y-54148259D01*
X159435308Y-54131463D01*
X159501444Y-54153999D01*
X159540486Y-54199056D01*
X159544951Y-54207820D01*
X159669890Y-54379786D01*
X159820213Y-54530109D01*
X159992179Y-54655048D01*
X159992181Y-54655049D01*
X159992184Y-54655051D01*
X160181588Y-54751557D01*
X160383757Y-54817246D01*
X160593713Y-54850500D01*
X160593714Y-54850500D01*
X160806286Y-54850500D01*
X160806287Y-54850500D01*
X161016243Y-54817246D01*
X161218412Y-54751557D01*
X161407816Y-54655051D01*
X161494138Y-54592335D01*
X161579786Y-54530109D01*
X161579788Y-54530106D01*
X161579792Y-54530104D01*
X161730104Y-54379792D01*
X161730106Y-54379788D01*
X161730109Y-54379786D01*
X161855048Y-54207820D01*
X161855047Y-54207820D01*
X161855051Y-54207816D01*
X161859514Y-54199054D01*
X161907488Y-54148259D01*
X161975308Y-54131463D01*
X162041444Y-54153999D01*
X162080486Y-54199056D01*
X162084951Y-54207820D01*
X162209890Y-54379786D01*
X162360213Y-54530109D01*
X162532179Y-54655048D01*
X162532181Y-54655049D01*
X162532184Y-54655051D01*
X162721588Y-54751557D01*
X162923757Y-54817246D01*
X163133713Y-54850500D01*
X163133714Y-54850500D01*
X163346286Y-54850500D01*
X163346287Y-54850500D01*
X163556243Y-54817246D01*
X163758412Y-54751557D01*
X163947816Y-54655051D01*
X164119792Y-54530104D01*
X164233329Y-54416566D01*
X164294648Y-54383084D01*
X164364340Y-54388068D01*
X164420274Y-54429939D01*
X164437189Y-54460917D01*
X164486202Y-54592328D01*
X164486206Y-54592335D01*
X164572452Y-54707544D01*
X164572455Y-54707547D01*
X164687664Y-54793793D01*
X164687671Y-54793797D01*
X164732618Y-54810561D01*
X164822517Y-54844091D01*
X164882127Y-54850500D01*
X165250500Y-54850499D01*
X165317539Y-54870183D01*
X165363294Y-54922987D01*
X165374500Y-54974499D01*
X165374500Y-56783885D01*
X165354815Y-56850924D01*
X165321428Y-56883606D01*
X165322331Y-56884849D01*
X165152786Y-57008028D01*
X165008028Y-57152786D01*
X164887715Y-57318386D01*
X164794781Y-57500776D01*
X164731522Y-57695465D01*
X164699500Y-57897648D01*
X164699500Y-58102351D01*
X164731522Y-58304534D01*
X164794781Y-58499223D01*
X164887715Y-58681613D01*
X165008028Y-58847213D01*
X165152786Y-58991971D01*
X165307749Y-59104556D01*
X165318390Y-59112287D01*
X165434607Y-59171503D01*
X165500776Y-59205218D01*
X165500778Y-59205218D01*
X165500781Y-59205220D01*
X165605137Y-59239127D01*
X165695465Y-59268477D01*
X165770428Y-59280350D01*
X165897648Y-59300500D01*
X165897649Y-59300500D01*
X166102351Y-59300500D01*
X166102352Y-59300500D01*
X166304534Y-59268477D01*
X166499219Y-59205220D01*
X166681610Y-59112287D01*
X166811725Y-59017754D01*
X166847213Y-58991971D01*
X166847215Y-58991968D01*
X166847219Y-58991966D01*
X166991966Y-58847219D01*
X166991968Y-58847215D01*
X166991971Y-58847213D01*
X167060876Y-58752372D01*
X167112287Y-58681610D01*
X167205220Y-58499219D01*
X167268477Y-58304534D01*
X167300500Y-58102352D01*
X167300500Y-57897648D01*
X167268477Y-57695466D01*
X167254609Y-57652786D01*
X167238110Y-57602007D01*
X167205220Y-57500781D01*
X167205218Y-57500778D01*
X167205218Y-57500776D01*
X167147610Y-57387715D01*
X167112287Y-57318390D01*
X167095134Y-57294781D01*
X166991971Y-57152786D01*
X166847213Y-57008028D01*
X166677669Y-56884849D01*
X166678884Y-56883176D01*
X166637831Y-56837792D01*
X166625500Y-56783885D01*
X166625500Y-54967513D01*
X166645185Y-54900474D01*
X166697989Y-54854719D01*
X166729950Y-54845952D01*
X166729932Y-54845876D01*
X166732082Y-54845367D01*
X166736257Y-54844222D01*
X166737483Y-54844091D01*
X166872331Y-54793796D01*
X166987546Y-54707546D01*
X167073796Y-54592331D01*
X167124091Y-54457483D01*
X167130500Y-54397873D01*
X167130499Y-52602128D01*
X167124091Y-52542517D01*
X167122810Y-52539083D01*
X167073797Y-52407671D01*
X167073793Y-52407664D01*
X166987547Y-52292455D01*
X166987544Y-52292452D01*
X166872335Y-52206206D01*
X166872328Y-52206202D01*
X166737482Y-52155908D01*
X166737483Y-52155908D01*
X166677883Y-52149501D01*
X166677881Y-52149500D01*
X166677873Y-52149500D01*
X166677864Y-52149500D01*
X164882129Y-52149500D01*
X164882123Y-52149501D01*
X164822516Y-52155908D01*
X164687671Y-52206202D01*
X164687664Y-52206206D01*
X164572455Y-52292452D01*
X164572452Y-52292455D01*
X164486206Y-52407664D01*
X164486203Y-52407669D01*
X164437189Y-52539083D01*
X164395317Y-52595016D01*
X164329853Y-52619433D01*
X164261580Y-52604581D01*
X164233326Y-52583430D01*
X164119786Y-52469890D01*
X163947820Y-52344951D01*
X163758414Y-52248444D01*
X163758413Y-52248443D01*
X163758412Y-52248443D01*
X163556243Y-52182754D01*
X163556241Y-52182753D01*
X163556240Y-52182753D01*
X163394957Y-52157208D01*
X163346287Y-52149500D01*
X163133713Y-52149500D01*
X163085042Y-52157208D01*
X162923760Y-52182753D01*
X162721585Y-52248444D01*
X162532179Y-52344951D01*
X162360213Y-52469890D01*
X162209890Y-52620213D01*
X162084949Y-52792182D01*
X162080484Y-52800946D01*
X162032509Y-52851742D01*
X161964688Y-52868536D01*
X161898553Y-52845998D01*
X161859516Y-52800946D01*
X161855050Y-52792182D01*
X161730109Y-52620213D01*
X161579786Y-52469890D01*
X161407820Y-52344951D01*
X161218414Y-52248444D01*
X161218413Y-52248443D01*
X161218412Y-52248443D01*
X161016243Y-52182754D01*
X161016241Y-52182753D01*
X161016240Y-52182753D01*
X160854957Y-52157208D01*
X160806287Y-52149500D01*
X160593713Y-52149500D01*
X160545042Y-52157208D01*
X160383760Y-52182753D01*
X160181585Y-52248444D01*
X159992179Y-52344951D01*
X159820213Y-52469890D01*
X159669890Y-52620213D01*
X159544949Y-52792182D01*
X159540484Y-52800946D01*
X159492509Y-52851742D01*
X159424688Y-52868536D01*
X159358553Y-52845998D01*
X159319516Y-52800946D01*
X159315050Y-52792182D01*
X159190109Y-52620213D01*
X159039786Y-52469890D01*
X158867820Y-52344951D01*
X158678414Y-52248444D01*
X158678413Y-52248443D01*
X158678412Y-52248443D01*
X158476243Y-52182754D01*
X158476241Y-52182753D01*
X158476240Y-52182753D01*
X158314957Y-52157208D01*
X158266287Y-52149500D01*
X158053713Y-52149500D01*
X158005042Y-52157208D01*
X157843760Y-52182753D01*
X157641585Y-52248444D01*
X157452179Y-52344951D01*
X157280213Y-52469890D01*
X157129890Y-52620213D01*
X157004949Y-52792182D01*
X157000484Y-52800946D01*
X156952509Y-52851742D01*
X156884688Y-52868536D01*
X156818553Y-52845998D01*
X156779516Y-52800946D01*
X156775050Y-52792182D01*
X156650109Y-52620213D01*
X156499786Y-52469890D01*
X156327820Y-52344951D01*
X156138414Y-52248444D01*
X156138413Y-52248443D01*
X156138412Y-52248443D01*
X155936243Y-52182754D01*
X155936241Y-52182753D01*
X155936240Y-52182753D01*
X155774957Y-52157208D01*
X155726287Y-52149500D01*
X155513713Y-52149500D01*
X155465042Y-52157208D01*
X155303760Y-52182753D01*
X155101585Y-52248444D01*
X154912179Y-52344951D01*
X154740213Y-52469890D01*
X154589890Y-52620213D01*
X154464949Y-52792182D01*
X154460484Y-52800946D01*
X154412509Y-52851742D01*
X154344688Y-52868536D01*
X154278553Y-52845998D01*
X154239516Y-52800946D01*
X154235050Y-52792182D01*
X154110109Y-52620213D01*
X153959786Y-52469890D01*
X153787820Y-52344951D01*
X153598414Y-52248444D01*
X153598413Y-52248443D01*
X153598412Y-52248443D01*
X153396243Y-52182754D01*
X153396241Y-52182753D01*
X153396240Y-52182753D01*
X153234957Y-52157208D01*
X153186287Y-52149500D01*
X152973713Y-52149500D01*
X152925042Y-52157208D01*
X152763760Y-52182753D01*
X152561585Y-52248444D01*
X152372179Y-52344951D01*
X152200213Y-52469890D01*
X152049890Y-52620213D01*
X151924949Y-52792182D01*
X151920484Y-52800946D01*
X151872509Y-52851742D01*
X151804688Y-52868536D01*
X151738553Y-52845998D01*
X151699516Y-52800946D01*
X151695050Y-52792182D01*
X151570109Y-52620213D01*
X151419786Y-52469890D01*
X151247820Y-52344951D01*
X151058414Y-52248444D01*
X151058413Y-52248443D01*
X151058412Y-52248443D01*
X150856243Y-52182754D01*
X150856241Y-52182753D01*
X150856240Y-52182753D01*
X150694957Y-52157208D01*
X150646287Y-52149500D01*
X150433713Y-52149500D01*
X150385042Y-52157208D01*
X150223760Y-52182753D01*
X150021585Y-52248444D01*
X149832179Y-52344951D01*
X149660213Y-52469890D01*
X149509898Y-52620205D01*
X149509898Y-52620206D01*
X149509896Y-52620208D01*
X149455218Y-52695466D01*
X149407339Y-52761365D01*
X149394703Y-52776159D01*
X149350846Y-52820017D01*
X149289523Y-52853503D01*
X149219832Y-52848519D01*
X149163898Y-52806649D01*
X149157516Y-52796392D01*
X149157171Y-52796604D01*
X149154626Y-52792452D01*
X149115270Y-52738282D01*
X149115269Y-52738282D01*
X148482962Y-53370589D01*
X148465925Y-53307007D01*
X148400099Y-53192993D01*
X148307007Y-53099901D01*
X148192993Y-53034075D01*
X148129409Y-53017037D01*
X148761716Y-52384728D01*
X148707550Y-52345375D01*
X148518217Y-52248904D01*
X148316129Y-52183242D01*
X148106246Y-52150000D01*
X147893754Y-52150000D01*
X147683872Y-52183242D01*
X147683869Y-52183242D01*
X147481782Y-52248904D01*
X147292439Y-52345380D01*
X147238282Y-52384727D01*
X147238282Y-52384728D01*
X147870591Y-53017037D01*
X147807007Y-53034075D01*
X147692993Y-53099901D01*
X147599901Y-53192993D01*
X147534075Y-53307007D01*
X147517037Y-53370591D01*
X146884728Y-52738282D01*
X146884727Y-52738282D01*
X146845380Y-52792439D01*
X146748904Y-52981782D01*
X146683242Y-53183869D01*
X146683242Y-53183872D01*
X146650000Y-53393753D01*
X146650000Y-53606246D01*
X146683242Y-53816127D01*
X146683242Y-53816130D01*
X146706329Y-53887182D01*
X146708324Y-53957023D01*
X146672244Y-54016856D01*
X146609543Y-54047684D01*
X146588398Y-54049500D01*
X145124501Y-54049500D01*
X145115815Y-54046949D01*
X145106854Y-54048238D01*
X145082813Y-54037259D01*
X145057462Y-54029815D01*
X145051534Y-54022974D01*
X145043298Y-54019213D01*
X145029008Y-53996978D01*
X145011707Y-53977011D01*
X145009419Y-53966496D01*
X145005524Y-53960435D01*
X145000501Y-53925500D01*
X145000501Y-53914141D01*
X145020186Y-53847102D01*
X145072990Y-53801347D01*
X145081163Y-53797961D01*
X145092331Y-53793796D01*
X145092331Y-53793795D01*
X145092333Y-53793795D01*
X145092333Y-53793794D01*
X145207546Y-53707546D01*
X145293796Y-53592331D01*
X145344091Y-53457483D01*
X145350500Y-53397873D01*
X145350499Y-51602128D01*
X145344091Y-51542517D01*
X145335191Y-51518656D01*
X145293797Y-51407671D01*
X145293793Y-51407664D01*
X145207547Y-51292455D01*
X145207544Y-51292452D01*
X145092335Y-51206206D01*
X145092328Y-51206202D01*
X144957482Y-51155908D01*
X144957483Y-51155908D01*
X144897883Y-51149501D01*
X144897881Y-51149500D01*
X144897873Y-51149500D01*
X144897865Y-51149500D01*
X144887309Y-51149500D01*
X144820270Y-51129815D01*
X144799628Y-51113181D01*
X144129408Y-50442962D01*
X144192993Y-50425925D01*
X144307007Y-50360099D01*
X144400099Y-50267007D01*
X144465925Y-50152993D01*
X144482962Y-50089408D01*
X145115270Y-50721717D01*
X145115270Y-50721716D01*
X145154622Y-50667554D01*
X145251095Y-50478217D01*
X145316757Y-50276130D01*
X145316757Y-50276127D01*
X145350000Y-50066246D01*
X145350000Y-49853753D01*
X145316757Y-49643872D01*
X145316757Y-49643869D01*
X145251095Y-49441782D01*
X145154624Y-49252449D01*
X145115270Y-49198282D01*
X145115269Y-49198282D01*
X144482962Y-49830590D01*
X144465925Y-49767007D01*
X144400099Y-49652993D01*
X144307007Y-49559901D01*
X144192993Y-49494075D01*
X144129409Y-49477037D01*
X144761716Y-48844728D01*
X144707550Y-48805375D01*
X144518217Y-48708904D01*
X144316129Y-48643242D01*
X144106246Y-48610000D01*
X143893754Y-48610000D01*
X143683872Y-48643242D01*
X143683869Y-48643242D01*
X143481782Y-48708904D01*
X143292439Y-48805380D01*
X143238282Y-48844727D01*
X143238282Y-48844728D01*
X143870591Y-49477037D01*
X143807007Y-49494075D01*
X143692993Y-49559901D01*
X143599901Y-49652993D01*
X143534075Y-49767007D01*
X143517037Y-49830591D01*
X142884728Y-49198282D01*
X142884727Y-49198282D01*
X142845380Y-49252439D01*
X142748904Y-49441782D01*
X142683242Y-49643869D01*
X142683242Y-49643872D01*
X142650000Y-49853753D01*
X142650000Y-50066246D01*
X142683242Y-50276127D01*
X142683242Y-50276130D01*
X142748904Y-50478217D01*
X142845375Y-50667550D01*
X142884728Y-50721716D01*
X143517037Y-50089408D01*
X143534075Y-50152993D01*
X143599901Y-50267007D01*
X143692993Y-50360099D01*
X143807007Y-50425925D01*
X143870590Y-50442962D01*
X143200370Y-51113181D01*
X143139047Y-51146666D01*
X143112698Y-51149500D01*
X143102134Y-51149500D01*
X143102123Y-51149501D01*
X143042516Y-51155908D01*
X142907671Y-51206202D01*
X142907664Y-51206206D01*
X142792455Y-51292452D01*
X142792452Y-51292455D01*
X142706206Y-51407664D01*
X142706202Y-51407671D01*
X142655908Y-51542517D01*
X142649501Y-51602116D01*
X142649501Y-51602123D01*
X142649500Y-51602135D01*
X142649500Y-52485218D01*
X142629815Y-52552257D01*
X142577011Y-52598012D01*
X142507853Y-52607956D01*
X142444297Y-52578931D01*
X142437819Y-52572899D01*
X142231479Y-52366559D01*
X142231459Y-52366537D01*
X142087785Y-52222863D01*
X142087781Y-52222860D01*
X141923920Y-52113371D01*
X141923911Y-52113366D01*
X141851315Y-52083296D01*
X141795165Y-52060038D01*
X141741836Y-52037949D01*
X141741832Y-52037948D01*
X141741828Y-52037946D01*
X141645188Y-52018724D01*
X141548544Y-51999500D01*
X141548541Y-51999500D01*
X140375762Y-51999500D01*
X140308723Y-51979815D01*
X140302877Y-51975818D01*
X140181613Y-51887715D01*
X140181612Y-51887714D01*
X140181610Y-51887713D01*
X140124653Y-51858691D01*
X139999223Y-51794781D01*
X139804534Y-51731522D01*
X139629995Y-51703878D01*
X139602352Y-51699500D01*
X139397648Y-51699500D01*
X139373329Y-51703351D01*
X139195465Y-51731522D01*
X139000776Y-51794781D01*
X138818386Y-51887715D01*
X138652786Y-52008028D01*
X138508028Y-52152786D01*
X138387715Y-52318386D01*
X138294781Y-52500776D01*
X138231522Y-52695465D01*
X138199500Y-52897648D01*
X138199500Y-53102351D01*
X138231522Y-53304534D01*
X138294781Y-53499223D01*
X138342221Y-53592328D01*
X138371821Y-53650421D01*
X138387715Y-53681613D01*
X138510897Y-53851161D01*
X138509378Y-53852264D01*
X138513222Y-53860841D01*
X138524615Y-53873989D01*
X138527213Y-53892058D01*
X138534681Y-53908722D01*
X138532082Y-53925926D01*
X138534559Y-53943147D01*
X138526974Y-53959755D01*
X138524248Y-53977808D01*
X138512762Y-53990875D01*
X138505534Y-54006703D01*
X138490174Y-54016574D01*
X138478121Y-54030287D01*
X138461211Y-54035187D01*
X138446756Y-54044477D01*
X138411821Y-54049500D01*
X138383460Y-54049500D01*
X138316421Y-54029815D01*
X138295779Y-54013181D01*
X134704495Y-50421897D01*
X134671010Y-50360574D01*
X134668176Y-50334216D01*
X134668176Y-49899998D01*
X134668175Y-49899983D01*
X134664242Y-49861483D01*
X134664242Y-49861482D01*
X134657676Y-49797203D01*
X134602491Y-49630666D01*
X134510389Y-49481344D01*
X134386333Y-49357288D01*
X134237011Y-49265186D01*
X134070474Y-49210001D01*
X134070472Y-49210000D01*
X133967687Y-49199500D01*
X132767675Y-49199500D01*
X132767658Y-49199501D01*
X132664880Y-49210000D01*
X132664877Y-49210001D01*
X132498345Y-49265185D01*
X132498340Y-49265187D01*
X132349019Y-49357289D01*
X132224966Y-49481342D01*
X132132864Y-49630663D01*
X132132862Y-49630668D01*
X132105026Y-49714670D01*
X132077678Y-49797203D01*
X132077678Y-49797204D01*
X132077677Y-49797204D01*
X132067177Y-49899983D01*
X132067177Y-51100001D01*
X132067178Y-51100018D01*
X132077677Y-51202796D01*
X132077678Y-51202799D01*
X132132862Y-51369331D01*
X132132863Y-51369334D01*
X132224965Y-51518656D01*
X132349021Y-51642712D01*
X132498343Y-51734814D01*
X132664880Y-51789999D01*
X132767668Y-51800500D01*
X133201894Y-51800499D01*
X133268933Y-51820183D01*
X133289575Y-51836818D01*
X136415075Y-54962318D01*
X136448560Y-55023641D01*
X136443576Y-55093333D01*
X136415074Y-55137680D01*
X133291832Y-58260925D01*
X132254576Y-59298181D01*
X132193253Y-59331666D01*
X132166895Y-59334500D01*
X123979430Y-59334500D01*
X123912391Y-59314815D01*
X123866636Y-59262011D01*
X123856692Y-59192853D01*
X123885717Y-59129297D01*
X123936097Y-59094318D01*
X123952086Y-59088354D01*
X123952093Y-59088350D01*
X124067187Y-59002190D01*
X124067190Y-59002187D01*
X124153350Y-58887093D01*
X124153354Y-58887086D01*
X124203596Y-58752379D01*
X124203598Y-58752372D01*
X124209999Y-58692844D01*
X124210000Y-58692827D01*
X124210000Y-58045000D01*
X123293012Y-58045000D01*
X123325925Y-57987993D01*
X123360000Y-57860826D01*
X123360000Y-57729174D01*
X123325925Y-57602007D01*
X123293012Y-57545000D01*
X124210000Y-57545000D01*
X124210000Y-56897172D01*
X124209999Y-56897155D01*
X124203598Y-56837627D01*
X124203596Y-56837620D01*
X124153354Y-56702913D01*
X124153350Y-56702906D01*
X124067190Y-56587812D01*
X124067187Y-56587809D01*
X123952093Y-56501649D01*
X123952086Y-56501645D01*
X123817379Y-56451403D01*
X123817372Y-56451401D01*
X123757844Y-56445000D01*
X123110000Y-56445000D01*
X123110000Y-57361988D01*
X123052993Y-57329075D01*
X122925826Y-57295000D01*
X122794174Y-57295000D01*
X122667007Y-57329075D01*
X122610000Y-57361988D01*
X122610000Y-56445000D01*
X121962155Y-56445000D01*
X121902627Y-56451401D01*
X121902620Y-56451403D01*
X121767913Y-56501645D01*
X121767906Y-56501649D01*
X121652812Y-56587809D01*
X121652809Y-56587812D01*
X121566649Y-56702906D01*
X121566645Y-56702913D01*
X121516403Y-56837620D01*
X121516401Y-56837627D01*
X121510000Y-56897155D01*
X121510000Y-57545000D01*
X122426988Y-57545000D01*
X122394075Y-57602007D01*
X122360000Y-57729174D01*
X122360000Y-57860826D01*
X122394075Y-57987993D01*
X122426988Y-58045000D01*
X121510000Y-58045000D01*
X121510000Y-58692844D01*
X121516401Y-58752372D01*
X121516403Y-58752379D01*
X121566645Y-58887086D01*
X121566649Y-58887093D01*
X121652809Y-59002187D01*
X121652812Y-59002190D01*
X121767906Y-59088350D01*
X121767913Y-59088354D01*
X121899470Y-59137422D01*
X121955404Y-59179293D01*
X121979821Y-59244758D01*
X121964969Y-59313031D01*
X121943819Y-59341285D01*
X121829889Y-59455215D01*
X121704951Y-59627179D01*
X121608444Y-59816585D01*
X121542753Y-60018760D01*
X121509500Y-60228713D01*
X121509500Y-60441286D01*
X121539585Y-60631240D01*
X121542754Y-60651243D01*
X121601347Y-60831574D01*
X121608444Y-60853414D01*
X121704951Y-61042820D01*
X121829890Y-61214786D01*
X121980213Y-61365109D01*
X122152182Y-61490050D01*
X122160946Y-61494516D01*
X122211742Y-61542491D01*
X122228536Y-61610312D01*
X122205998Y-61676447D01*
X122160946Y-61715484D01*
X122152182Y-61719949D01*
X121980213Y-61844890D01*
X121829890Y-61995213D01*
X121704951Y-62167179D01*
X121608444Y-62356585D01*
X121542753Y-62558760D01*
X121509500Y-62768713D01*
X121509500Y-62981286D01*
X121541486Y-63183242D01*
X121542754Y-63191243D01*
X121605621Y-63384728D01*
X121608444Y-63393414D01*
X121704951Y-63582820D01*
X121829890Y-63754786D01*
X121980213Y-63905109D01*
X122152182Y-64030050D01*
X122160946Y-64034516D01*
X122211742Y-64082491D01*
X122228536Y-64150312D01*
X122205998Y-64216447D01*
X122160946Y-64255484D01*
X122152182Y-64259949D01*
X121980213Y-64384890D01*
X121829890Y-64535213D01*
X121704951Y-64707179D01*
X121608444Y-64896585D01*
X121542753Y-65098760D01*
X121509500Y-65308713D01*
X121509500Y-65521286D01*
X121542753Y-65731241D01*
X121547821Y-65746837D01*
X121549816Y-65816678D01*
X121517571Y-65872837D01*
X121286270Y-66104139D01*
X121199144Y-66191264D01*
X121199138Y-66191272D01*
X121130692Y-66293705D01*
X121130684Y-66293719D01*
X121097347Y-66374207D01*
X121091823Y-66387543D01*
X121083537Y-66407545D01*
X121083535Y-66407553D01*
X121059500Y-66528389D01*
X121059500Y-71043312D01*
X121083535Y-71164145D01*
X121083540Y-71164162D01*
X121130685Y-71277981D01*
X121130687Y-71277984D01*
X121130688Y-71277987D01*
X121164915Y-71329210D01*
X121199142Y-71380434D01*
X121286267Y-71467559D01*
X121286269Y-71467560D01*
X121296232Y-71477523D01*
X121815614Y-71996905D01*
X121849099Y-72058228D01*
X121844115Y-72127920D01*
X121828251Y-72157471D01*
X121704951Y-72327180D01*
X121608444Y-72516585D01*
X121542753Y-72718760D01*
X121525480Y-72827820D01*
X121509500Y-72928713D01*
X121509500Y-73141287D01*
X121510897Y-73150109D01*
X121523066Y-73226942D01*
X121542754Y-73351243D01*
X121592696Y-73504949D01*
X121608444Y-73553414D01*
X121629228Y-73594205D01*
X121642124Y-73662874D01*
X121615848Y-73727615D01*
X121558741Y-73767872D01*
X121518743Y-73774500D01*
X106755453Y-73774500D01*
X106688414Y-73754815D01*
X106667772Y-73738181D01*
X101342428Y-68412837D01*
X101308943Y-68351514D01*
X101312178Y-68286837D01*
X101317246Y-68271243D01*
X101350500Y-68061287D01*
X101350500Y-67848713D01*
X101317246Y-67638757D01*
X101251557Y-67436588D01*
X101155051Y-67247184D01*
X101155049Y-67247181D01*
X101155048Y-67247179D01*
X101030109Y-67075213D01*
X100879786Y-66924890D01*
X100707820Y-66799951D01*
X100707115Y-66799591D01*
X100699054Y-66795485D01*
X100648259Y-66747512D01*
X100631463Y-66679692D01*
X100653999Y-66613556D01*
X100699054Y-66574515D01*
X100707816Y-66570051D01*
X100729789Y-66554086D01*
X100879786Y-66445109D01*
X100879788Y-66445106D01*
X100879792Y-66445104D01*
X101030104Y-66294792D01*
X101030106Y-66294788D01*
X101030109Y-66294786D01*
X101155048Y-66122820D01*
X101155047Y-66122820D01*
X101155051Y-66122816D01*
X101251557Y-65933412D01*
X101317246Y-65731243D01*
X101350500Y-65521287D01*
X101350500Y-65308713D01*
X101317246Y-65098757D01*
X101251557Y-64896588D01*
X101155051Y-64707184D01*
X101155049Y-64707181D01*
X101155048Y-64707179D01*
X101030109Y-64535213D01*
X100879786Y-64384890D01*
X100707820Y-64259951D01*
X100707115Y-64259591D01*
X100699054Y-64255485D01*
X100648259Y-64207512D01*
X100631463Y-64139692D01*
X100653999Y-64073556D01*
X100699054Y-64034515D01*
X100707816Y-64030051D01*
X100807698Y-63957483D01*
X100879786Y-63905109D01*
X100879788Y-63905106D01*
X100879792Y-63905104D01*
X101030104Y-63754792D01*
X101030106Y-63754788D01*
X101030109Y-63754786D01*
X101155048Y-63582820D01*
X101155047Y-63582820D01*
X101155051Y-63582816D01*
X101251557Y-63393412D01*
X101317246Y-63191243D01*
X101350500Y-62981287D01*
X101350500Y-62768713D01*
X101317246Y-62558757D01*
X101251557Y-62356588D01*
X101155051Y-62167184D01*
X101155049Y-62167181D01*
X101155048Y-62167179D01*
X101030109Y-61995213D01*
X100879786Y-61844890D01*
X100707820Y-61719951D01*
X100707115Y-61719591D01*
X100699054Y-61715485D01*
X100648259Y-61667512D01*
X100631463Y-61599692D01*
X100653999Y-61533556D01*
X100699054Y-61494515D01*
X100707816Y-61490051D01*
X100784938Y-61434019D01*
X100879786Y-61365109D01*
X100879788Y-61365106D01*
X100879792Y-61365104D01*
X101030104Y-61214792D01*
X101030106Y-61214788D01*
X101030109Y-61214786D01*
X101155048Y-61042820D01*
X101155047Y-61042820D01*
X101155051Y-61042816D01*
X101251557Y-60853412D01*
X101317246Y-60651243D01*
X101350500Y-60441287D01*
X101350500Y-60228713D01*
X101317246Y-60018757D01*
X101251557Y-59816588D01*
X101155051Y-59627184D01*
X101155049Y-59627181D01*
X101155048Y-59627179D01*
X101030109Y-59455213D01*
X100916569Y-59341673D01*
X100883084Y-59280350D01*
X100888068Y-59210658D01*
X100929940Y-59154725D01*
X100960915Y-59137810D01*
X101092331Y-59088796D01*
X101207546Y-59002546D01*
X101293796Y-58887331D01*
X101344091Y-58752483D01*
X101350500Y-58692873D01*
X101350499Y-56897128D01*
X101344091Y-56837517D01*
X101293884Y-56702906D01*
X101293797Y-56702671D01*
X101293793Y-56702664D01*
X101207547Y-56587455D01*
X101207544Y-56587452D01*
X101092335Y-56501206D01*
X101092328Y-56501202D01*
X100957482Y-56450908D01*
X100957483Y-56450908D01*
X100897883Y-56444501D01*
X100897881Y-56444500D01*
X100897873Y-56444500D01*
X100897864Y-56444500D01*
X99102129Y-56444500D01*
X99102123Y-56444501D01*
X99042516Y-56450908D01*
X98907671Y-56501202D01*
X98907664Y-56501206D01*
X98792455Y-56587452D01*
X98792452Y-56587455D01*
X98706206Y-56702664D01*
X98706202Y-56702671D01*
X98655908Y-56837517D01*
X98650820Y-56884849D01*
X98649501Y-56897123D01*
X98649500Y-56897135D01*
X98649500Y-58692870D01*
X98649501Y-58692876D01*
X98655908Y-58752483D01*
X98706202Y-58887328D01*
X98706206Y-58887335D01*
X98792452Y-59002544D01*
X98792455Y-59002547D01*
X98907664Y-59088793D01*
X98907671Y-59088797D01*
X99039082Y-59137810D01*
X99095016Y-59179681D01*
X99119433Y-59245145D01*
X99104582Y-59313418D01*
X99083431Y-59341673D01*
X98969889Y-59455215D01*
X98844951Y-59627179D01*
X98748444Y-59816585D01*
X98682753Y-60018760D01*
X98649500Y-60228713D01*
X98649500Y-60441286D01*
X98679585Y-60631240D01*
X98682754Y-60651243D01*
X98741347Y-60831574D01*
X98748444Y-60853414D01*
X98844951Y-61042820D01*
X98969890Y-61214786D01*
X99120213Y-61365109D01*
X99292182Y-61490050D01*
X99300946Y-61494516D01*
X99351742Y-61542491D01*
X99368536Y-61610312D01*
X99345998Y-61676447D01*
X99300946Y-61715484D01*
X99292182Y-61719949D01*
X99120213Y-61844890D01*
X98969890Y-61995213D01*
X98844951Y-62167179D01*
X98748444Y-62356585D01*
X98682753Y-62558760D01*
X98649500Y-62768713D01*
X98649500Y-62981286D01*
X98681486Y-63183242D01*
X98682754Y-63191243D01*
X98745621Y-63384728D01*
X98748444Y-63393414D01*
X98844951Y-63582820D01*
X98969890Y-63754786D01*
X99120213Y-63905109D01*
X99292182Y-64030050D01*
X99300946Y-64034516D01*
X99351742Y-64082491D01*
X99368536Y-64150312D01*
X99345998Y-64216447D01*
X99300946Y-64255484D01*
X99292182Y-64259949D01*
X99120213Y-64384890D01*
X98969890Y-64535213D01*
X98844951Y-64707179D01*
X98748444Y-64896585D01*
X98682753Y-65098760D01*
X98649500Y-65308713D01*
X98649500Y-65521286D01*
X98676142Y-65689500D01*
X98682754Y-65731243D01*
X98732696Y-65884949D01*
X98748444Y-65933414D01*
X98844951Y-66122820D01*
X98969890Y-66294786D01*
X99120213Y-66445109D01*
X99292182Y-66570050D01*
X99300946Y-66574516D01*
X99351742Y-66622491D01*
X99368536Y-66690312D01*
X99345998Y-66756447D01*
X99300946Y-66795484D01*
X99292182Y-66799949D01*
X99120213Y-66924890D01*
X98969890Y-67075213D01*
X98844951Y-67247179D01*
X98748444Y-67436585D01*
X98682753Y-67638760D01*
X98664620Y-67753251D01*
X98649500Y-67848713D01*
X98649500Y-68061287D01*
X98682754Y-68271243D01*
X98723832Y-68397669D01*
X98748444Y-68473414D01*
X98844951Y-68662820D01*
X98969890Y-68834786D01*
X99120213Y-68985109D01*
X99292182Y-69110050D01*
X99300946Y-69114516D01*
X99351742Y-69162491D01*
X99368536Y-69230312D01*
X99345998Y-69296447D01*
X99300946Y-69335484D01*
X99292182Y-69339949D01*
X99120213Y-69464890D01*
X98969890Y-69615213D01*
X98844951Y-69787179D01*
X98748444Y-69976585D01*
X98682753Y-70178760D01*
X98652984Y-70366714D01*
X98649500Y-70388713D01*
X98649500Y-70601287D01*
X98682754Y-70811243D01*
X98706486Y-70884283D01*
X98748444Y-71013414D01*
X98844951Y-71202820D01*
X98969890Y-71374786D01*
X99120213Y-71525109D01*
X99292182Y-71650050D01*
X99300946Y-71654516D01*
X99351742Y-71702491D01*
X99368536Y-71770312D01*
X99345998Y-71836447D01*
X99300946Y-71875484D01*
X99292182Y-71879949D01*
X99120213Y-72004890D01*
X98969890Y-72155213D01*
X98844951Y-72327179D01*
X98748444Y-72516585D01*
X98682753Y-72718760D01*
X98665480Y-72827820D01*
X98649500Y-72928713D01*
X98649500Y-73141287D01*
X98650897Y-73150109D01*
X98663066Y-73226942D01*
X98682754Y-73351243D01*
X98732696Y-73504949D01*
X98748444Y-73553414D01*
X98844951Y-73742820D01*
X98969890Y-73914786D01*
X99120213Y-74065109D01*
X99292182Y-74190050D01*
X99300946Y-74194516D01*
X99351742Y-74242491D01*
X99368536Y-74310312D01*
X99345998Y-74376447D01*
X99300946Y-74415484D01*
X99292182Y-74419949D01*
X99120213Y-74544890D01*
X98969890Y-74695213D01*
X98844951Y-74867179D01*
X98748444Y-75056585D01*
X98682753Y-75258760D01*
X98665480Y-75367820D01*
X98649500Y-75468713D01*
X98649500Y-75681287D01*
X98650897Y-75690109D01*
X98674799Y-75841022D01*
X98682754Y-75891243D01*
X98732696Y-76044949D01*
X98748444Y-76093414D01*
X98844951Y-76282820D01*
X98969890Y-76454786D01*
X99120213Y-76605109D01*
X99292182Y-76730050D01*
X99300946Y-76734516D01*
X99351742Y-76782491D01*
X99368536Y-76850312D01*
X99345998Y-76916447D01*
X99300946Y-76955484D01*
X99292182Y-76959949D01*
X99120213Y-77084890D01*
X98969890Y-77235213D01*
X98844951Y-77407179D01*
X98748444Y-77596585D01*
X98682753Y-77798760D01*
X98665480Y-77907820D01*
X98649500Y-78008713D01*
X98649500Y-78221287D01*
X98682754Y-78431243D01*
X98732696Y-78584949D01*
X98748444Y-78633414D01*
X98844951Y-78822820D01*
X98969890Y-78994786D01*
X99120213Y-79145109D01*
X99292182Y-79270050D01*
X99300946Y-79274516D01*
X99351742Y-79322491D01*
X99368536Y-79390312D01*
X99345998Y-79456447D01*
X99300946Y-79495484D01*
X99292182Y-79499949D01*
X99120213Y-79624890D01*
X98969890Y-79775213D01*
X98844951Y-79947179D01*
X98748444Y-80136585D01*
X98682753Y-80338760D01*
X98665480Y-80447820D01*
X98649500Y-80548713D01*
X98649500Y-80761287D01*
X98654144Y-80790606D01*
X98678706Y-80945689D01*
X98682754Y-80971243D01*
X98745806Y-81165297D01*
X98748444Y-81173414D01*
X98844951Y-81362820D01*
X98969890Y-81534786D01*
X99120213Y-81685109D01*
X99292182Y-81810050D01*
X99300946Y-81814516D01*
X99351742Y-81862491D01*
X99368536Y-81930312D01*
X99345998Y-81996447D01*
X99300946Y-82035484D01*
X99292182Y-82039949D01*
X99120213Y-82164890D01*
X98969890Y-82315213D01*
X98844951Y-82487179D01*
X98748444Y-82676585D01*
X98682753Y-82878760D01*
X98660938Y-83016498D01*
X98649500Y-83088713D01*
X98649500Y-83301287D01*
X98653605Y-83327204D01*
X98679000Y-83487546D01*
X98682754Y-83511243D01*
X98745803Y-83705288D01*
X98748444Y-83713414D01*
X98844951Y-83902820D01*
X98969890Y-84074786D01*
X99120213Y-84225109D01*
X99292182Y-84350050D01*
X99300946Y-84354516D01*
X99351742Y-84402491D01*
X99368536Y-84470312D01*
X99345998Y-84536447D01*
X99300946Y-84575484D01*
X99292182Y-84579949D01*
X99120213Y-84704890D01*
X98969890Y-84855213D01*
X98844951Y-85027179D01*
X98748444Y-85216585D01*
X98682753Y-85418760D01*
X98649500Y-85628713D01*
X98649500Y-85841286D01*
X98682753Y-86051239D01*
X98748444Y-86253414D01*
X98844951Y-86442820D01*
X98969890Y-86614786D01*
X99120213Y-86765109D01*
X99292182Y-86890050D01*
X99300946Y-86894516D01*
X99351742Y-86942491D01*
X99368536Y-87010312D01*
X99345998Y-87076447D01*
X99300946Y-87115484D01*
X99292182Y-87119949D01*
X99120213Y-87244890D01*
X98969890Y-87395213D01*
X98844951Y-87567179D01*
X98748444Y-87756585D01*
X98682753Y-87958760D01*
X98670822Y-88034090D01*
X98649500Y-88168713D01*
X98649500Y-88381287D01*
X98682754Y-88591243D01*
X98728761Y-88732838D01*
X98748444Y-88793414D01*
X98844951Y-88982820D01*
X98969890Y-89154786D01*
X99120213Y-89305109D01*
X99292182Y-89430050D01*
X99300946Y-89434516D01*
X99351742Y-89482491D01*
X99368536Y-89550312D01*
X99345998Y-89616447D01*
X99300946Y-89655484D01*
X99292182Y-89659949D01*
X99120213Y-89784890D01*
X98969890Y-89935213D01*
X98844951Y-90107179D01*
X98748444Y-90296585D01*
X98682753Y-90498760D01*
X98649500Y-90708713D01*
X98649500Y-90921286D01*
X98682753Y-91131239D01*
X98748444Y-91333414D01*
X98769228Y-91374205D01*
X98782124Y-91442874D01*
X98755848Y-91507615D01*
X98698741Y-91547872D01*
X98658743Y-91554500D01*
X97387741Y-91554500D01*
X97387721Y-91554499D01*
X97381607Y-91554499D01*
X97258394Y-91554499D01*
X97157597Y-91574548D01*
X97157592Y-91574548D01*
X97137549Y-91578536D01*
X97104710Y-91592139D01*
X97104709Y-91592139D01*
X97023721Y-91625684D01*
X97023708Y-91625691D01*
X96921267Y-91694141D01*
X96921263Y-91694144D01*
X95957837Y-92657570D01*
X95896514Y-92691055D01*
X95831842Y-92687821D01*
X95816246Y-92682754D01*
X95657239Y-92657570D01*
X95606287Y-92649500D01*
X95393713Y-92649500D01*
X95345042Y-92657208D01*
X95183760Y-92682753D01*
X94981585Y-92748444D01*
X94792179Y-92844951D01*
X94620213Y-92969890D01*
X94469890Y-93120213D01*
X94344951Y-93292179D01*
X94248444Y-93481585D01*
X94182753Y-93683760D01*
X94149500Y-93893713D01*
X94149500Y-94106286D01*
X94176574Y-94277228D01*
X94182754Y-94316243D01*
X94247176Y-94514514D01*
X94248444Y-94518414D01*
X94344951Y-94707820D01*
X94469890Y-94879786D01*
X94620213Y-95030109D01*
X94792182Y-95155050D01*
X94800946Y-95159516D01*
X94851742Y-95207491D01*
X94868536Y-95275312D01*
X94845998Y-95341447D01*
X94800946Y-95380484D01*
X94792182Y-95384949D01*
X94620213Y-95509890D01*
X94469890Y-95660213D01*
X94344951Y-95832179D01*
X94248444Y-96021585D01*
X94182753Y-96223760D01*
X94149500Y-96433713D01*
X94149500Y-96646286D01*
X94182299Y-96853375D01*
X94182754Y-96856243D01*
X94247176Y-97054514D01*
X94248444Y-97058414D01*
X94344951Y-97247820D01*
X94469890Y-97419786D01*
X94620213Y-97570109D01*
X94792182Y-97695050D01*
X94800946Y-97699516D01*
X94851742Y-97747491D01*
X94868536Y-97815312D01*
X94845998Y-97881447D01*
X94800946Y-97920484D01*
X94792182Y-97924949D01*
X94620213Y-98049890D01*
X94469890Y-98200213D01*
X94344951Y-98372179D01*
X94248444Y-98561585D01*
X94182753Y-98763760D01*
X94149500Y-98973713D01*
X94149500Y-99186286D01*
X94167477Y-99299792D01*
X94182754Y-99396243D01*
X94247176Y-99594514D01*
X94248444Y-99598414D01*
X94344951Y-99787820D01*
X94469890Y-99959786D01*
X94620213Y-100110109D01*
X94792182Y-100235050D01*
X94800946Y-100239516D01*
X94851742Y-100287491D01*
X94868536Y-100355312D01*
X94845998Y-100421447D01*
X94800946Y-100460484D01*
X94792182Y-100464949D01*
X94620213Y-100589890D01*
X94469890Y-100740213D01*
X94344951Y-100912179D01*
X94248444Y-101101585D01*
X94182753Y-101303760D01*
X94153285Y-101489815D01*
X94149500Y-101513713D01*
X94149500Y-101726287D01*
X94156374Y-101769685D01*
X94182170Y-101932561D01*
X94182754Y-101936243D01*
X94247176Y-102134514D01*
X94248444Y-102138414D01*
X94344951Y-102327820D01*
X94469890Y-102499786D01*
X94583818Y-102613714D01*
X94617303Y-102675037D01*
X94612319Y-102744729D01*
X94570447Y-102800662D01*
X94539471Y-102817577D01*
X94407912Y-102866646D01*
X94407906Y-102866649D01*
X94292812Y-102952809D01*
X94292809Y-102952812D01*
X94206649Y-103067906D01*
X94206645Y-103067913D01*
X94156403Y-103202620D01*
X94156401Y-103202627D01*
X94150000Y-103262155D01*
X94150000Y-103910000D01*
X95066988Y-103910000D01*
X95034075Y-103967007D01*
X95000000Y-104094174D01*
X95000000Y-104225826D01*
X95034075Y-104352993D01*
X95066988Y-104410000D01*
X94150000Y-104410000D01*
X94150000Y-105057844D01*
X94156401Y-105117372D01*
X94156403Y-105117379D01*
X94206645Y-105252086D01*
X94206649Y-105252093D01*
X94292809Y-105367187D01*
X94292812Y-105367190D01*
X94407906Y-105453350D01*
X94407913Y-105453354D01*
X94542620Y-105503596D01*
X94542627Y-105503598D01*
X94602155Y-105509999D01*
X94602172Y-105510000D01*
X95250000Y-105510000D01*
X95250000Y-104593012D01*
X95307007Y-104625925D01*
X95434174Y-104660000D01*
X95565826Y-104660000D01*
X95692993Y-104625925D01*
X95750000Y-104593012D01*
X95750000Y-105510000D01*
X96397828Y-105510000D01*
X96397844Y-105509999D01*
X96457372Y-105503598D01*
X96457379Y-105503596D01*
X96592086Y-105453354D01*
X96592093Y-105453350D01*
X96707187Y-105367190D01*
X96707190Y-105367187D01*
X96793350Y-105252093D01*
X96793354Y-105252086D01*
X96843596Y-105117379D01*
X96843598Y-105117372D01*
X96849999Y-105057844D01*
X96850000Y-105057827D01*
X96850000Y-104330729D01*
X96869685Y-104263690D01*
X96922489Y-104217935D01*
X96991647Y-104207991D01*
X97055203Y-104237016D01*
X97061681Y-104243048D01*
X97913181Y-105094548D01*
X97946666Y-105155871D01*
X97949500Y-105182229D01*
X97949500Y-111747396D01*
X97949500Y-111747398D01*
X97949499Y-111747398D01*
X97978340Y-111892385D01*
X97978343Y-111892395D01*
X98034914Y-112028969D01*
X98034916Y-112028973D01*
X98056620Y-112061456D01*
X98067328Y-112077482D01*
X98117049Y-112151896D01*
X98117052Y-112151899D01*
X98752973Y-112787819D01*
X98786458Y-112849142D01*
X98781474Y-112918833D01*
X98739603Y-112974767D01*
X98674138Y-112999184D01*
X98665292Y-112999500D01*
X61624500Y-112999500D01*
X61557461Y-112979815D01*
X61511706Y-112927011D01*
X61500500Y-112875500D01*
X61500500Y-82530305D01*
X69000000Y-82530305D01*
X69000000Y-82792494D01*
X69034220Y-83052409D01*
X69034222Y-83052420D01*
X69102075Y-83305655D01*
X69202404Y-83547871D01*
X69202409Y-83547882D01*
X69333488Y-83774916D01*
X69333494Y-83774924D01*
X69420080Y-83887765D01*
X70360689Y-82947156D01*
X70379668Y-82992974D01*
X70456274Y-83107624D01*
X70553776Y-83205126D01*
X70668426Y-83281732D01*
X70714242Y-83300709D01*
X69773633Y-84241317D01*
X69773633Y-84241318D01*
X69886475Y-84327905D01*
X69886483Y-84327911D01*
X70113517Y-84458990D01*
X70113528Y-84458995D01*
X70355744Y-84559324D01*
X70608979Y-84627177D01*
X70608990Y-84627179D01*
X70868905Y-84661399D01*
X70868920Y-84661400D01*
X71131080Y-84661400D01*
X71131094Y-84661399D01*
X71391009Y-84627179D01*
X71391020Y-84627177D01*
X71644255Y-84559324D01*
X71886471Y-84458995D01*
X71886482Y-84458990D01*
X72113516Y-84327911D01*
X72113534Y-84327899D01*
X72226365Y-84241319D01*
X72226365Y-84241317D01*
X71285757Y-83300709D01*
X71331574Y-83281732D01*
X71446224Y-83205126D01*
X71543726Y-83107624D01*
X71620332Y-82992974D01*
X71639309Y-82947157D01*
X72579917Y-83887765D01*
X72579919Y-83887765D01*
X72666499Y-83774934D01*
X72666511Y-83774916D01*
X72797590Y-83547882D01*
X72797595Y-83547871D01*
X72897924Y-83305655D01*
X72965777Y-83052420D01*
X72965779Y-83052409D01*
X72999999Y-82792494D01*
X73000000Y-82792480D01*
X73000000Y-82530312D01*
X72999995Y-82530272D01*
X75349500Y-82530272D01*
X75349500Y-82792527D01*
X75375891Y-82992974D01*
X75383730Y-83052516D01*
X75450388Y-83301287D01*
X75451602Y-83305818D01*
X75451605Y-83305828D01*
X75551953Y-83548090D01*
X75551958Y-83548100D01*
X75683075Y-83775203D01*
X75842718Y-83983251D01*
X75842726Y-83983260D01*
X76028140Y-84168674D01*
X76028148Y-84168681D01*
X76028149Y-84168682D01*
X76076554Y-84205824D01*
X76236196Y-84328324D01*
X76463299Y-84459441D01*
X76463309Y-84459446D01*
X76705571Y-84559794D01*
X76705581Y-84559798D01*
X76958884Y-84627670D01*
X77200651Y-84659500D01*
X77215074Y-84661399D01*
X77218880Y-84661900D01*
X77218887Y-84661900D01*
X77481113Y-84661900D01*
X77481120Y-84661900D01*
X77741116Y-84627670D01*
X77994419Y-84559798D01*
X78236697Y-84459443D01*
X78463803Y-84328324D01*
X78671851Y-84168682D01*
X78671855Y-84168677D01*
X78671860Y-84168674D01*
X78857274Y-83983260D01*
X78857277Y-83983255D01*
X78857282Y-83983251D01*
X79016924Y-83775203D01*
X79148043Y-83548097D01*
X79214172Y-83388448D01*
X79258013Y-83334044D01*
X79324307Y-83311979D01*
X79328733Y-83311900D01*
X81721267Y-83311900D01*
X81788306Y-83331585D01*
X81834061Y-83384389D01*
X81835828Y-83388448D01*
X81901951Y-83548085D01*
X81901958Y-83548100D01*
X82033075Y-83775203D01*
X82192718Y-83983251D01*
X82192726Y-83983260D01*
X82378140Y-84168674D01*
X82378148Y-84168681D01*
X82378149Y-84168682D01*
X82426554Y-84205824D01*
X82586196Y-84328324D01*
X82813299Y-84459441D01*
X82813309Y-84459446D01*
X83055571Y-84559794D01*
X83055581Y-84559798D01*
X83308884Y-84627670D01*
X83550651Y-84659500D01*
X83565074Y-84661399D01*
X83568880Y-84661900D01*
X83568887Y-84661900D01*
X83831113Y-84661900D01*
X83831120Y-84661900D01*
X84091116Y-84627670D01*
X84344419Y-84559798D01*
X84586697Y-84459443D01*
X84813803Y-84328324D01*
X85021851Y-84168682D01*
X85021855Y-84168677D01*
X85021860Y-84168674D01*
X85207274Y-83983260D01*
X85207277Y-83983255D01*
X85207282Y-83983251D01*
X85366924Y-83775203D01*
X85498043Y-83548097D01*
X85598398Y-83305819D01*
X85666270Y-83052516D01*
X85700500Y-82792520D01*
X85700500Y-82530280D01*
X85666270Y-82270284D01*
X85598398Y-82016981D01*
X85532267Y-81857330D01*
X85530130Y-81837453D01*
X85523145Y-81818723D01*
X85526472Y-81803428D01*
X85524799Y-81787863D01*
X85533748Y-81769984D01*
X85537998Y-81750451D01*
X85554683Y-81728162D01*
X85556074Y-81725384D01*
X85559149Y-81722197D01*
X85594529Y-81686818D01*
X85655853Y-81653333D01*
X85682209Y-81650500D01*
X92025501Y-81650500D01*
X92092540Y-81670185D01*
X92138295Y-81722989D01*
X92149501Y-81774500D01*
X92149501Y-81897876D01*
X92155908Y-81957483D01*
X92206202Y-82092328D01*
X92206206Y-82092335D01*
X92292452Y-82207544D01*
X92292455Y-82207547D01*
X92407664Y-82293793D01*
X92407671Y-82293797D01*
X92542517Y-82344091D01*
X92542516Y-82344091D01*
X92549444Y-82344835D01*
X92602127Y-82350500D01*
X94397872Y-82350499D01*
X94457483Y-82344091D01*
X94592331Y-82293796D01*
X94707546Y-82207546D01*
X94793796Y-82092331D01*
X94844091Y-81957483D01*
X94850500Y-81897873D01*
X94850499Y-80102128D01*
X94844091Y-80042517D01*
X94808532Y-79947179D01*
X94793797Y-79907671D01*
X94793793Y-79907664D01*
X94707547Y-79792455D01*
X94707544Y-79792452D01*
X94592335Y-79706206D01*
X94592328Y-79706202D01*
X94457482Y-79655908D01*
X94457483Y-79655908D01*
X94397883Y-79649501D01*
X94397881Y-79649500D01*
X94397873Y-79649500D01*
X94397864Y-79649500D01*
X92602129Y-79649500D01*
X92602123Y-79649501D01*
X92542516Y-79655908D01*
X92407671Y-79706202D01*
X92407664Y-79706206D01*
X92292455Y-79792452D01*
X92292452Y-79792455D01*
X92206206Y-79907664D01*
X92206202Y-79907671D01*
X92155908Y-80042517D01*
X92149501Y-80102116D01*
X92149501Y-80102123D01*
X92149500Y-80102135D01*
X92149500Y-80225500D01*
X92129815Y-80292539D01*
X92077011Y-80338294D01*
X92025500Y-80349500D01*
X85297329Y-80349500D01*
X85171661Y-80374497D01*
X85171655Y-80374499D01*
X85053270Y-80423535D01*
X84946731Y-80494722D01*
X84946724Y-80494728D01*
X84639201Y-80802251D01*
X84577878Y-80835736D01*
X84508186Y-80830752D01*
X84504084Y-80829137D01*
X84345561Y-80763475D01*
X84344417Y-80763001D01*
X84219917Y-80729642D01*
X84091116Y-80695130D01*
X84033339Y-80687523D01*
X83831127Y-80660900D01*
X83831120Y-80660900D01*
X83568880Y-80660900D01*
X83568872Y-80660900D01*
X83337772Y-80691326D01*
X83308884Y-80695130D01*
X83060888Y-80761580D01*
X83055581Y-80763002D01*
X83055571Y-80763005D01*
X82813309Y-80863353D01*
X82813299Y-80863358D01*
X82586196Y-80994475D01*
X82378148Y-81154118D01*
X82192718Y-81339548D01*
X82033075Y-81547596D01*
X81901958Y-81774699D01*
X81901951Y-81774714D01*
X81835828Y-81934352D01*
X81791987Y-81988756D01*
X81725693Y-82010821D01*
X81721267Y-82010900D01*
X79328733Y-82010900D01*
X79261694Y-81991215D01*
X79215939Y-81938411D01*
X79214172Y-81934352D01*
X79148048Y-81774714D01*
X79148041Y-81774699D01*
X79016924Y-81547596D01*
X78889954Y-81382128D01*
X78857282Y-81339549D01*
X78857281Y-81339548D01*
X78857274Y-81339540D01*
X78671860Y-81154126D01*
X78671851Y-81154118D01*
X78463803Y-80994475D01*
X78236700Y-80863358D01*
X78236690Y-80863353D01*
X77994428Y-80763005D01*
X77994421Y-80763003D01*
X77994419Y-80763002D01*
X77741116Y-80695130D01*
X77683339Y-80687523D01*
X77481127Y-80660900D01*
X77481120Y-80660900D01*
X77218880Y-80660900D01*
X77218872Y-80660900D01*
X76987772Y-80691326D01*
X76958884Y-80695130D01*
X76710888Y-80761580D01*
X76705581Y-80763002D01*
X76705571Y-80763005D01*
X76463309Y-80863353D01*
X76463299Y-80863358D01*
X76236196Y-80994475D01*
X76028148Y-81154118D01*
X75842718Y-81339548D01*
X75683075Y-81547596D01*
X75551958Y-81774699D01*
X75551953Y-81774709D01*
X75451605Y-82016971D01*
X75451602Y-82016981D01*
X75383730Y-82270284D01*
X75383716Y-82270390D01*
X75349500Y-82530272D01*
X72999995Y-82530272D01*
X72965779Y-82270390D01*
X72965777Y-82270379D01*
X72897924Y-82017144D01*
X72797595Y-81774928D01*
X72797590Y-81774917D01*
X72666511Y-81547883D01*
X72666505Y-81547875D01*
X72579918Y-81435033D01*
X72579917Y-81435033D01*
X71639309Y-82375642D01*
X71620332Y-82329826D01*
X71543726Y-82215176D01*
X71446224Y-82117674D01*
X71331574Y-82041068D01*
X71285755Y-82022089D01*
X72226365Y-81081480D01*
X72113524Y-80994894D01*
X72113516Y-80994888D01*
X71886482Y-80863809D01*
X71886471Y-80863804D01*
X71644255Y-80763475D01*
X71391020Y-80695622D01*
X71391009Y-80695620D01*
X71131094Y-80661400D01*
X70868905Y-80661400D01*
X70608990Y-80695620D01*
X70608979Y-80695622D01*
X70355744Y-80763475D01*
X70113528Y-80863804D01*
X70113517Y-80863809D01*
X69886471Y-80994896D01*
X69773633Y-81081479D01*
X69773633Y-81081480D01*
X70714243Y-82022090D01*
X70668426Y-82041068D01*
X70553776Y-82117674D01*
X70456274Y-82215176D01*
X70379668Y-82329826D01*
X70360690Y-82375643D01*
X69420080Y-81435033D01*
X69420079Y-81435033D01*
X69333496Y-81547871D01*
X69202409Y-81774917D01*
X69202404Y-81774928D01*
X69102075Y-82017144D01*
X69034222Y-82270379D01*
X69034220Y-82270390D01*
X69000000Y-82530305D01*
X61500500Y-82530305D01*
X61500500Y-66300272D01*
X68999500Y-66300272D01*
X68999500Y-66562527D01*
X69017360Y-66698176D01*
X69033730Y-66822516D01*
X69101440Y-67075213D01*
X69101602Y-67075818D01*
X69101605Y-67075828D01*
X69201953Y-67318090D01*
X69201958Y-67318100D01*
X69333075Y-67545203D01*
X69492718Y-67753251D01*
X69492726Y-67753260D01*
X69678140Y-67938674D01*
X69678148Y-67938681D01*
X69886196Y-68098324D01*
X70113299Y-68229441D01*
X70113309Y-68229446D01*
X70251859Y-68286835D01*
X70355581Y-68329798D01*
X70608884Y-68397670D01*
X70868880Y-68431900D01*
X70868887Y-68431900D01*
X71131113Y-68431900D01*
X71131120Y-68431900D01*
X71391116Y-68397670D01*
X71644419Y-68329798D01*
X71886697Y-68229443D01*
X72113803Y-68098324D01*
X72321851Y-67938682D01*
X72321855Y-67938677D01*
X72321860Y-67938674D01*
X72507274Y-67753260D01*
X72507277Y-67753255D01*
X72507282Y-67753251D01*
X72666924Y-67545203D01*
X72798043Y-67318097D01*
X72898398Y-67075819D01*
X72966270Y-66822516D01*
X73000500Y-66562520D01*
X73000500Y-66300280D01*
X73000499Y-66300272D01*
X75349500Y-66300272D01*
X75349500Y-66562527D01*
X75367360Y-66698176D01*
X75383730Y-66822516D01*
X75451440Y-67075213D01*
X75451602Y-67075818D01*
X75451605Y-67075828D01*
X75551953Y-67318090D01*
X75551958Y-67318100D01*
X75683075Y-67545203D01*
X75842718Y-67753251D01*
X75842726Y-67753260D01*
X76028140Y-67938674D01*
X76028148Y-67938681D01*
X76236196Y-68098324D01*
X76463299Y-68229441D01*
X76463309Y-68229446D01*
X76601859Y-68286835D01*
X76705581Y-68329798D01*
X76958884Y-68397670D01*
X77218880Y-68431900D01*
X77218887Y-68431900D01*
X77481113Y-68431900D01*
X77481120Y-68431900D01*
X77741116Y-68397670D01*
X77994419Y-68329798D01*
X78236697Y-68229443D01*
X78463803Y-68098324D01*
X78671851Y-67938682D01*
X78671855Y-67938677D01*
X78671860Y-67938674D01*
X78857274Y-67753260D01*
X78857277Y-67753255D01*
X78857282Y-67753251D01*
X79016924Y-67545203D01*
X79148043Y-67318097D01*
X79248398Y-67075819D01*
X79316270Y-66822516D01*
X79350500Y-66562520D01*
X79350500Y-66300280D01*
X79350499Y-66300272D01*
X81699500Y-66300272D01*
X81699500Y-66562527D01*
X81717360Y-66698176D01*
X81733730Y-66822516D01*
X81801440Y-67075213D01*
X81801602Y-67075818D01*
X81801605Y-67075828D01*
X81901953Y-67318090D01*
X81901958Y-67318100D01*
X82033075Y-67545203D01*
X82192718Y-67753251D01*
X82192726Y-67753260D01*
X82378140Y-67938674D01*
X82378148Y-67938681D01*
X82586196Y-68098324D01*
X82813299Y-68229441D01*
X82813309Y-68229446D01*
X82951859Y-68286835D01*
X83055581Y-68329798D01*
X83308884Y-68397670D01*
X83568880Y-68431900D01*
X83568887Y-68431900D01*
X83831113Y-68431900D01*
X83831120Y-68431900D01*
X84091116Y-68397670D01*
X84344419Y-68329798D01*
X84586697Y-68229443D01*
X84813803Y-68098324D01*
X85021851Y-67938682D01*
X85021855Y-67938677D01*
X85021860Y-67938674D01*
X85207274Y-67753260D01*
X85207277Y-67753255D01*
X85207282Y-67753251D01*
X85366924Y-67545203D01*
X85498043Y-67318097D01*
X85598398Y-67075819D01*
X85666270Y-66822516D01*
X85700500Y-66562520D01*
X85700500Y-66300280D01*
X85699777Y-66294792D01*
X85698960Y-66288588D01*
X85666270Y-66040284D01*
X85598398Y-65786981D01*
X85593447Y-65775029D01*
X85498046Y-65544709D01*
X85498041Y-65544699D01*
X85366924Y-65317596D01*
X85207281Y-65109548D01*
X85207274Y-65109540D01*
X85021860Y-64924126D01*
X85021851Y-64924118D01*
X84813803Y-64764475D01*
X84586700Y-64633358D01*
X84586690Y-64633353D01*
X84344428Y-64533005D01*
X84344421Y-64533003D01*
X84344419Y-64533002D01*
X84091116Y-64465130D01*
X84033339Y-64457523D01*
X83831127Y-64430900D01*
X83831120Y-64430900D01*
X83568880Y-64430900D01*
X83568872Y-64430900D01*
X83337772Y-64461326D01*
X83308884Y-64465130D01*
X83178747Y-64500000D01*
X83055581Y-64533002D01*
X83055571Y-64533005D01*
X82813309Y-64633353D01*
X82813299Y-64633358D01*
X82586196Y-64764475D01*
X82378148Y-64924118D01*
X82192718Y-65109548D01*
X82033075Y-65317596D01*
X81901958Y-65544699D01*
X81901953Y-65544709D01*
X81801605Y-65786971D01*
X81801602Y-65786981D01*
X81741873Y-66009896D01*
X81733730Y-66040285D01*
X81699500Y-66300272D01*
X79350499Y-66300272D01*
X79349777Y-66294792D01*
X79348960Y-66288588D01*
X79316270Y-66040284D01*
X79248398Y-65786981D01*
X79243447Y-65775029D01*
X79148046Y-65544709D01*
X79148041Y-65544699D01*
X79016924Y-65317596D01*
X78857281Y-65109548D01*
X78857274Y-65109540D01*
X78671860Y-64924126D01*
X78671851Y-64924118D01*
X78463803Y-64764475D01*
X78236700Y-64633358D01*
X78236690Y-64633353D01*
X77994428Y-64533005D01*
X77994421Y-64533003D01*
X77994419Y-64533002D01*
X77741116Y-64465130D01*
X77683339Y-64457523D01*
X77481127Y-64430900D01*
X77481120Y-64430900D01*
X77218880Y-64430900D01*
X77218872Y-64430900D01*
X76987772Y-64461326D01*
X76958884Y-64465130D01*
X76828747Y-64500000D01*
X76705581Y-64533002D01*
X76705571Y-64533005D01*
X76463309Y-64633353D01*
X76463299Y-64633358D01*
X76236196Y-64764475D01*
X76028148Y-64924118D01*
X75842718Y-65109548D01*
X75683075Y-65317596D01*
X75551958Y-65544699D01*
X75551953Y-65544709D01*
X75451605Y-65786971D01*
X75451602Y-65786981D01*
X75391873Y-66009896D01*
X75383730Y-66040285D01*
X75349500Y-66300272D01*
X73000499Y-66300272D01*
X72999777Y-66294792D01*
X72998960Y-66288588D01*
X72966270Y-66040284D01*
X72898398Y-65786981D01*
X72893447Y-65775029D01*
X72798046Y-65544709D01*
X72798041Y-65544699D01*
X72666924Y-65317596D01*
X72507281Y-65109548D01*
X72507274Y-65109540D01*
X72321860Y-64924126D01*
X72321851Y-64924118D01*
X72113803Y-64764475D01*
X71886700Y-64633358D01*
X71886690Y-64633353D01*
X71644428Y-64533005D01*
X71644421Y-64533003D01*
X71644419Y-64533002D01*
X71391116Y-64465130D01*
X71333339Y-64457523D01*
X71131127Y-64430900D01*
X71131120Y-64430900D01*
X70868880Y-64430900D01*
X70868872Y-64430900D01*
X70637772Y-64461326D01*
X70608884Y-64465130D01*
X70478747Y-64500000D01*
X70355581Y-64533002D01*
X70355571Y-64533005D01*
X70113309Y-64633353D01*
X70113299Y-64633358D01*
X69886196Y-64764475D01*
X69678148Y-64924118D01*
X69492718Y-65109548D01*
X69333075Y-65317596D01*
X69201958Y-65544699D01*
X69201953Y-65544709D01*
X69101605Y-65786971D01*
X69101602Y-65786981D01*
X69041873Y-66009896D01*
X69033730Y-66040285D01*
X68999500Y-66300272D01*
X61500500Y-66300272D01*
X61500500Y-60368905D01*
X69020000Y-60368905D01*
X69020000Y-60631094D01*
X69054220Y-60891009D01*
X69054222Y-60891020D01*
X69122075Y-61144255D01*
X69222404Y-61386471D01*
X69222409Y-61386482D01*
X69353488Y-61613516D01*
X69353494Y-61613524D01*
X69440080Y-61726365D01*
X70380689Y-60785756D01*
X70399668Y-60831574D01*
X70476274Y-60946224D01*
X70573776Y-61043726D01*
X70688426Y-61120332D01*
X70734242Y-61139309D01*
X69793633Y-62079917D01*
X69793633Y-62079918D01*
X69906475Y-62166505D01*
X69906483Y-62166511D01*
X70133517Y-62297590D01*
X70133528Y-62297595D01*
X70375744Y-62397924D01*
X70628979Y-62465777D01*
X70628990Y-62465779D01*
X70888905Y-62499999D01*
X70888920Y-62500000D01*
X71151080Y-62500000D01*
X71151094Y-62499999D01*
X71411009Y-62465779D01*
X71411020Y-62465777D01*
X71664255Y-62397924D01*
X71906471Y-62297595D01*
X71906482Y-62297590D01*
X72133516Y-62166511D01*
X72133534Y-62166499D01*
X72246365Y-62079919D01*
X72246365Y-62079917D01*
X71305757Y-61139309D01*
X71351574Y-61120332D01*
X71466224Y-61043726D01*
X71563726Y-60946224D01*
X71640332Y-60831574D01*
X71659309Y-60785757D01*
X72599917Y-61726365D01*
X72599919Y-61726365D01*
X72686499Y-61613534D01*
X72686511Y-61613516D01*
X72817590Y-61386482D01*
X72817595Y-61386471D01*
X72917924Y-61144255D01*
X72985777Y-60891020D01*
X72985779Y-60891009D01*
X73019999Y-60631094D01*
X73020000Y-60631080D01*
X73020000Y-60368912D01*
X73019995Y-60368872D01*
X75369500Y-60368872D01*
X75369500Y-60631127D01*
X75392988Y-60809522D01*
X75403730Y-60891116D01*
X75462953Y-61112139D01*
X75471602Y-61144418D01*
X75471605Y-61144428D01*
X75571953Y-61386690D01*
X75571958Y-61386700D01*
X75703075Y-61613803D01*
X75862718Y-61821851D01*
X75862726Y-61821860D01*
X76048140Y-62007274D01*
X76048148Y-62007281D01*
X76256196Y-62166924D01*
X76483299Y-62298041D01*
X76483309Y-62298046D01*
X76725571Y-62398394D01*
X76725581Y-62398398D01*
X76978884Y-62466270D01*
X77227188Y-62498960D01*
X77235074Y-62499999D01*
X77238880Y-62500500D01*
X77238887Y-62500500D01*
X77501113Y-62500500D01*
X77501120Y-62500500D01*
X77761116Y-62466270D01*
X78014419Y-62398398D01*
X78256697Y-62298043D01*
X78483803Y-62166924D01*
X78691851Y-62007282D01*
X78691855Y-62007277D01*
X78691860Y-62007274D01*
X78877274Y-61821860D01*
X78877277Y-61821855D01*
X78877282Y-61821851D01*
X79036924Y-61613803D01*
X79168043Y-61386697D01*
X79268398Y-61144419D01*
X79336270Y-60891116D01*
X79370500Y-60631120D01*
X79370500Y-60368880D01*
X79370499Y-60368872D01*
X81719500Y-60368872D01*
X81719500Y-60631127D01*
X81742988Y-60809522D01*
X81753730Y-60891116D01*
X81812953Y-61112139D01*
X81821602Y-61144418D01*
X81821605Y-61144428D01*
X81921953Y-61386690D01*
X81921958Y-61386700D01*
X82053075Y-61613803D01*
X82212718Y-61821851D01*
X82212726Y-61821860D01*
X82398140Y-62007274D01*
X82398148Y-62007281D01*
X82606196Y-62166924D01*
X82833299Y-62298041D01*
X82833309Y-62298046D01*
X83075571Y-62398394D01*
X83075581Y-62398398D01*
X83328884Y-62466270D01*
X83577188Y-62498960D01*
X83585074Y-62499999D01*
X83588880Y-62500500D01*
X83588887Y-62500500D01*
X83851113Y-62500500D01*
X83851120Y-62500500D01*
X84111116Y-62466270D01*
X84364419Y-62398398D01*
X84606697Y-62298043D01*
X84833803Y-62166924D01*
X85041851Y-62007282D01*
X85041855Y-62007277D01*
X85041860Y-62007274D01*
X85227274Y-61821860D01*
X85227277Y-61821855D01*
X85227282Y-61821851D01*
X85386924Y-61613803D01*
X85518043Y-61386697D01*
X85538777Y-61336641D01*
X85584172Y-61227048D01*
X85628013Y-61172644D01*
X85694307Y-61150579D01*
X85698733Y-61150500D01*
X90679192Y-61150500D01*
X90746231Y-61170185D01*
X90766873Y-61186819D01*
X92113181Y-62533127D01*
X92146666Y-62594450D01*
X92149500Y-62620808D01*
X92149500Y-63897870D01*
X92149501Y-63897876D01*
X92155908Y-63957483D01*
X92206202Y-64092328D01*
X92206206Y-64092335D01*
X92292452Y-64207544D01*
X92292455Y-64207547D01*
X92407664Y-64293793D01*
X92407671Y-64293797D01*
X92542517Y-64344091D01*
X92542516Y-64344091D01*
X92549444Y-64344835D01*
X92602127Y-64350500D01*
X94397872Y-64350499D01*
X94457483Y-64344091D01*
X94592331Y-64293796D01*
X94707546Y-64207546D01*
X94793796Y-64092331D01*
X94844091Y-63957483D01*
X94850500Y-63897873D01*
X94850499Y-62102128D01*
X94844091Y-62042517D01*
X94830949Y-62007282D01*
X94793797Y-61907671D01*
X94793793Y-61907664D01*
X94707547Y-61792455D01*
X94707544Y-61792452D01*
X94592335Y-61706206D01*
X94592328Y-61706202D01*
X94457482Y-61655908D01*
X94457483Y-61655908D01*
X94397883Y-61649501D01*
X94397881Y-61649500D01*
X94397873Y-61649500D01*
X94397865Y-61649500D01*
X93120808Y-61649500D01*
X93053769Y-61629815D01*
X93033127Y-61613181D01*
X91414674Y-59994727D01*
X91414673Y-59994726D01*
X91310089Y-59924846D01*
X91308127Y-59923535D01*
X91250432Y-59899637D01*
X91189744Y-59874499D01*
X91171153Y-59870801D01*
X91064071Y-59849500D01*
X91064069Y-59849500D01*
X85698733Y-59849500D01*
X85631694Y-59829815D01*
X85585939Y-59777011D01*
X85584172Y-59772952D01*
X85518048Y-59613314D01*
X85518041Y-59613299D01*
X85386924Y-59386196D01*
X85228663Y-59179949D01*
X85227282Y-59178149D01*
X85227281Y-59178148D01*
X85227274Y-59178140D01*
X85041860Y-58992726D01*
X85041851Y-58992718D01*
X84833803Y-58833075D01*
X84606700Y-58701958D01*
X84606690Y-58701953D01*
X84364428Y-58601605D01*
X84364421Y-58601603D01*
X84364419Y-58601602D01*
X84111116Y-58533730D01*
X84053339Y-58526123D01*
X83851127Y-58499500D01*
X83851120Y-58499500D01*
X83588880Y-58499500D01*
X83588872Y-58499500D01*
X83357772Y-58529926D01*
X83328884Y-58533730D01*
X83075581Y-58601602D01*
X83075571Y-58601605D01*
X82833309Y-58701953D01*
X82833299Y-58701958D01*
X82606196Y-58833075D01*
X82398148Y-58992718D01*
X82212718Y-59178148D01*
X82053075Y-59386196D01*
X81921958Y-59613299D01*
X81921953Y-59613309D01*
X81821605Y-59855571D01*
X81821602Y-59855581D01*
X81753730Y-60108884D01*
X81753716Y-60108990D01*
X81719500Y-60368872D01*
X79370499Y-60368872D01*
X79336270Y-60108884D01*
X79268398Y-59855581D01*
X79265879Y-59849500D01*
X79168046Y-59613309D01*
X79168041Y-59613299D01*
X79036924Y-59386196D01*
X78878663Y-59179949D01*
X78877282Y-59178149D01*
X78877281Y-59178148D01*
X78877274Y-59178140D01*
X78691860Y-58992726D01*
X78691851Y-58992718D01*
X78483803Y-58833075D01*
X78256700Y-58701958D01*
X78256690Y-58701953D01*
X78014428Y-58601605D01*
X78014421Y-58601603D01*
X78014419Y-58601602D01*
X77761116Y-58533730D01*
X77703339Y-58526123D01*
X77501127Y-58499500D01*
X77501120Y-58499500D01*
X77238880Y-58499500D01*
X77238872Y-58499500D01*
X77007772Y-58529926D01*
X76978884Y-58533730D01*
X76725581Y-58601602D01*
X76725571Y-58601605D01*
X76483309Y-58701953D01*
X76483299Y-58701958D01*
X76256196Y-58833075D01*
X76048148Y-58992718D01*
X75862718Y-59178148D01*
X75703075Y-59386196D01*
X75571958Y-59613299D01*
X75571953Y-59613309D01*
X75471605Y-59855571D01*
X75471602Y-59855581D01*
X75403730Y-60108884D01*
X75403716Y-60108990D01*
X75369500Y-60368872D01*
X73019995Y-60368872D01*
X72985779Y-60108990D01*
X72985777Y-60108979D01*
X72917924Y-59855744D01*
X72817595Y-59613528D01*
X72817590Y-59613517D01*
X72686511Y-59386483D01*
X72686505Y-59386475D01*
X72599918Y-59273633D01*
X72599917Y-59273633D01*
X71659309Y-60214242D01*
X71640332Y-60168426D01*
X71563726Y-60053776D01*
X71466224Y-59956274D01*
X71351574Y-59879668D01*
X71305755Y-59860689D01*
X72246365Y-58920080D01*
X72133524Y-58833494D01*
X72133516Y-58833488D01*
X71906482Y-58702409D01*
X71906471Y-58702404D01*
X71664255Y-58602075D01*
X71411020Y-58534222D01*
X71411009Y-58534220D01*
X71151094Y-58500000D01*
X70888905Y-58500000D01*
X70628990Y-58534220D01*
X70628979Y-58534222D01*
X70375744Y-58602075D01*
X70133528Y-58702404D01*
X70133517Y-58702409D01*
X69906471Y-58833496D01*
X69793633Y-58920079D01*
X69793633Y-58920080D01*
X70734243Y-59860690D01*
X70688426Y-59879668D01*
X70573776Y-59956274D01*
X70476274Y-60053776D01*
X70399668Y-60168426D01*
X70380690Y-60214243D01*
X69440080Y-59273633D01*
X69440079Y-59273633D01*
X69353496Y-59386471D01*
X69222409Y-59613517D01*
X69222404Y-59613528D01*
X69122075Y-59855744D01*
X69054222Y-60108979D01*
X69054220Y-60108990D01*
X69020000Y-60368905D01*
X61500500Y-60368905D01*
X61500500Y-50397682D01*
X127067677Y-50397682D01*
X127067677Y-50602317D01*
X127099686Y-50804417D01*
X127162921Y-50999031D01*
X127255818Y-51181350D01*
X127255824Y-51181359D01*
X127288200Y-51225921D01*
X127288201Y-51225922D01*
X127967677Y-50546446D01*
X127967677Y-50552661D01*
X127994936Y-50654394D01*
X128047597Y-50745606D01*
X128122071Y-50820080D01*
X128213283Y-50872741D01*
X128315016Y-50900000D01*
X128321230Y-50900000D01*
X127641753Y-51579474D01*
X127686327Y-51611859D01*
X127868645Y-51704755D01*
X128063259Y-51767990D01*
X128265360Y-51800000D01*
X128469994Y-51800000D01*
X128672094Y-51767990D01*
X128866708Y-51704755D01*
X129049026Y-51611859D01*
X129093598Y-51579474D01*
X128414124Y-50900000D01*
X128420338Y-50900000D01*
X128522071Y-50872741D01*
X128613283Y-50820080D01*
X128687757Y-50745606D01*
X128740418Y-50654394D01*
X128767677Y-50552661D01*
X128767677Y-50546448D01*
X129447151Y-51225922D01*
X129447151Y-51225921D01*
X129479536Y-51181349D01*
X129572432Y-50999031D01*
X129635667Y-50804417D01*
X129667677Y-50602317D01*
X129667677Y-50397682D01*
X129635667Y-50195582D01*
X129572432Y-50000968D01*
X129479536Y-49818650D01*
X129447151Y-49774077D01*
X129447151Y-49774076D01*
X128767677Y-50453551D01*
X128767677Y-50447339D01*
X128740418Y-50345606D01*
X128687757Y-50254394D01*
X128613283Y-50179920D01*
X128522071Y-50127259D01*
X128420338Y-50100000D01*
X128414123Y-50100000D01*
X129093599Y-49420524D01*
X129093598Y-49420523D01*
X129049036Y-49388147D01*
X129049027Y-49388141D01*
X128866708Y-49295244D01*
X128672094Y-49232009D01*
X128469994Y-49200000D01*
X128265360Y-49200000D01*
X128063259Y-49232009D01*
X127868645Y-49295244D01*
X127686321Y-49388143D01*
X127641754Y-49420523D01*
X127641754Y-49420524D01*
X128321231Y-50100000D01*
X128315016Y-50100000D01*
X128213283Y-50127259D01*
X128122071Y-50179920D01*
X128047597Y-50254394D01*
X127994936Y-50345606D01*
X127967677Y-50447339D01*
X127967677Y-50453553D01*
X127288201Y-49774077D01*
X127288200Y-49774077D01*
X127255820Y-49818644D01*
X127162921Y-50000968D01*
X127099686Y-50195582D01*
X127067677Y-50397682D01*
X61500500Y-50397682D01*
X61500500Y-47897682D01*
X138200000Y-47897682D01*
X138200000Y-48102317D01*
X138232009Y-48304417D01*
X138295244Y-48499031D01*
X138388141Y-48681350D01*
X138388147Y-48681359D01*
X138420523Y-48725921D01*
X138420524Y-48725922D01*
X139100000Y-48046446D01*
X139100000Y-48052661D01*
X139127259Y-48154394D01*
X139179920Y-48245606D01*
X139254394Y-48320080D01*
X139345606Y-48372741D01*
X139447339Y-48400000D01*
X139453553Y-48400000D01*
X138774076Y-49079474D01*
X138818650Y-49111859D01*
X139000968Y-49204755D01*
X139195582Y-49267990D01*
X139397683Y-49300000D01*
X139602317Y-49300000D01*
X139804417Y-49267990D01*
X139999031Y-49204755D01*
X140181349Y-49111859D01*
X140225921Y-49079474D01*
X140225922Y-49079474D01*
X140126116Y-48979668D01*
X139546447Y-48400000D01*
X139552661Y-48400000D01*
X139654394Y-48372741D01*
X139745606Y-48320080D01*
X139820080Y-48245606D01*
X139872741Y-48154394D01*
X139900000Y-48052661D01*
X139900000Y-48046447D01*
X140579474Y-48725921D01*
X140611859Y-48681349D01*
X140704755Y-48499031D01*
X140767990Y-48304417D01*
X140800000Y-48102317D01*
X140800000Y-47897682D01*
X140767990Y-47695582D01*
X140704755Y-47500968D01*
X140611859Y-47318650D01*
X140579474Y-47274077D01*
X140579474Y-47274076D01*
X139900000Y-47953551D01*
X139900000Y-47947339D01*
X139872741Y-47845606D01*
X139820080Y-47754394D01*
X139745606Y-47679920D01*
X139654394Y-47627259D01*
X139552661Y-47600000D01*
X139546446Y-47600000D01*
X140225922Y-46920524D01*
X140225921Y-46920523D01*
X140181359Y-46888147D01*
X140181350Y-46888141D01*
X139999031Y-46795244D01*
X139804417Y-46732009D01*
X139602317Y-46700000D01*
X139397683Y-46700000D01*
X139195582Y-46732009D01*
X139000968Y-46795244D01*
X138818644Y-46888143D01*
X138774077Y-46920523D01*
X138774077Y-46920524D01*
X139453554Y-47600000D01*
X139447339Y-47600000D01*
X139345606Y-47627259D01*
X139254394Y-47679920D01*
X139179920Y-47754394D01*
X139127259Y-47845606D01*
X139100000Y-47947339D01*
X139100000Y-47953553D01*
X138420524Y-47274077D01*
X138420523Y-47274077D01*
X138388143Y-47318644D01*
X138295244Y-47500968D01*
X138232009Y-47695582D01*
X138200000Y-47897682D01*
X61500500Y-47897682D01*
X61500500Y-44138872D01*
X69019500Y-44138872D01*
X69019500Y-44401127D01*
X69046123Y-44603339D01*
X69053730Y-44661116D01*
X69121602Y-44914418D01*
X69121605Y-44914428D01*
X69221953Y-45156690D01*
X69221958Y-45156700D01*
X69353075Y-45383803D01*
X69512718Y-45591851D01*
X69512726Y-45591860D01*
X69698140Y-45777274D01*
X69698148Y-45777281D01*
X69906196Y-45936924D01*
X70133299Y-46068041D01*
X70133309Y-46068046D01*
X70375571Y-46168394D01*
X70375581Y-46168398D01*
X70628884Y-46236270D01*
X70888880Y-46270500D01*
X70888887Y-46270500D01*
X71151113Y-46270500D01*
X71151120Y-46270500D01*
X71411116Y-46236270D01*
X71664419Y-46168398D01*
X71906697Y-46068043D01*
X72133803Y-45936924D01*
X72341851Y-45777282D01*
X72341855Y-45777277D01*
X72341860Y-45777274D01*
X72527274Y-45591860D01*
X72527277Y-45591855D01*
X72527282Y-45591851D01*
X72686924Y-45383803D01*
X72818043Y-45156697D01*
X72918398Y-44914419D01*
X72986270Y-44661116D01*
X73020500Y-44401120D01*
X73020500Y-44138880D01*
X73020499Y-44138872D01*
X75369500Y-44138872D01*
X75369500Y-44401127D01*
X75396123Y-44603339D01*
X75403730Y-44661116D01*
X75471602Y-44914418D01*
X75471605Y-44914428D01*
X75571953Y-45156690D01*
X75571958Y-45156700D01*
X75703075Y-45383803D01*
X75862718Y-45591851D01*
X75862726Y-45591860D01*
X76048140Y-45777274D01*
X76048148Y-45777281D01*
X76256196Y-45936924D01*
X76483299Y-46068041D01*
X76483309Y-46068046D01*
X76725571Y-46168394D01*
X76725581Y-46168398D01*
X76978884Y-46236270D01*
X77238880Y-46270500D01*
X77238887Y-46270500D01*
X77501113Y-46270500D01*
X77501120Y-46270500D01*
X77761116Y-46236270D01*
X78014419Y-46168398D01*
X78256697Y-46068043D01*
X78483803Y-45936924D01*
X78691851Y-45777282D01*
X78691855Y-45777277D01*
X78691860Y-45777274D01*
X78877274Y-45591860D01*
X78877277Y-45591855D01*
X78877282Y-45591851D01*
X79036924Y-45383803D01*
X79168043Y-45156697D01*
X79268398Y-44914419D01*
X79336270Y-44661116D01*
X79370500Y-44401120D01*
X79370500Y-44138880D01*
X79370499Y-44138872D01*
X81719500Y-44138872D01*
X81719500Y-44401127D01*
X81746123Y-44603339D01*
X81753730Y-44661116D01*
X81821602Y-44914418D01*
X81821605Y-44914428D01*
X81921953Y-45156690D01*
X81921958Y-45156700D01*
X82053075Y-45383803D01*
X82212718Y-45591851D01*
X82212726Y-45591860D01*
X82398140Y-45777274D01*
X82398148Y-45777281D01*
X82606196Y-45936924D01*
X82833299Y-46068041D01*
X82833309Y-46068046D01*
X83075571Y-46168394D01*
X83075581Y-46168398D01*
X83328884Y-46236270D01*
X83588880Y-46270500D01*
X83588887Y-46270500D01*
X83851113Y-46270500D01*
X83851120Y-46270500D01*
X84111116Y-46236270D01*
X84364419Y-46168398D01*
X84606697Y-46068043D01*
X84833803Y-45936924D01*
X85041851Y-45777282D01*
X85041855Y-45777277D01*
X85041860Y-45777274D01*
X85227274Y-45591860D01*
X85227277Y-45591855D01*
X85227282Y-45591851D01*
X85386924Y-45383803D01*
X85518043Y-45156697D01*
X85618398Y-44914419D01*
X85686270Y-44661116D01*
X85720500Y-44401120D01*
X85720500Y-44138880D01*
X85686270Y-43878884D01*
X85618398Y-43625581D01*
X85618394Y-43625571D01*
X85518046Y-43383309D01*
X85518041Y-43383299D01*
X85386924Y-43156196D01*
X85227281Y-42948148D01*
X85227274Y-42948140D01*
X85041860Y-42762726D01*
X85041851Y-42762718D01*
X84833803Y-42603075D01*
X84606700Y-42471958D01*
X84606690Y-42471953D01*
X84364428Y-42371605D01*
X84364421Y-42371603D01*
X84364419Y-42371602D01*
X84111116Y-42303730D01*
X84053339Y-42296123D01*
X83851127Y-42269500D01*
X83851120Y-42269500D01*
X83588880Y-42269500D01*
X83588872Y-42269500D01*
X83357772Y-42299926D01*
X83328884Y-42303730D01*
X83075581Y-42371602D01*
X83075571Y-42371605D01*
X82833309Y-42471953D01*
X82833299Y-42471958D01*
X82606196Y-42603075D01*
X82398148Y-42762718D01*
X82212718Y-42948148D01*
X82053075Y-43156196D01*
X81921958Y-43383299D01*
X81921953Y-43383309D01*
X81821605Y-43625571D01*
X81821602Y-43625581D01*
X81753730Y-43878885D01*
X81719500Y-44138872D01*
X79370499Y-44138872D01*
X79336270Y-43878884D01*
X79268398Y-43625581D01*
X79268394Y-43625571D01*
X79168046Y-43383309D01*
X79168041Y-43383299D01*
X79036924Y-43156196D01*
X78877281Y-42948148D01*
X78877274Y-42948140D01*
X78691860Y-42762726D01*
X78691851Y-42762718D01*
X78483803Y-42603075D01*
X78256700Y-42471958D01*
X78256690Y-42471953D01*
X78014428Y-42371605D01*
X78014421Y-42371603D01*
X78014419Y-42371602D01*
X77761116Y-42303730D01*
X77703339Y-42296123D01*
X77501127Y-42269500D01*
X77501120Y-42269500D01*
X77238880Y-42269500D01*
X77238872Y-42269500D01*
X77007772Y-42299926D01*
X76978884Y-42303730D01*
X76725581Y-42371602D01*
X76725571Y-42371605D01*
X76483309Y-42471953D01*
X76483299Y-42471958D01*
X76256196Y-42603075D01*
X76048148Y-42762718D01*
X75862718Y-42948148D01*
X75703075Y-43156196D01*
X75571958Y-43383299D01*
X75571953Y-43383309D01*
X75471605Y-43625571D01*
X75471602Y-43625581D01*
X75403730Y-43878885D01*
X75369500Y-44138872D01*
X73020499Y-44138872D01*
X72986270Y-43878884D01*
X72918398Y-43625581D01*
X72918394Y-43625571D01*
X72818046Y-43383309D01*
X72818041Y-43383299D01*
X72686924Y-43156196D01*
X72527281Y-42948148D01*
X72527274Y-42948140D01*
X72341860Y-42762726D01*
X72341851Y-42762718D01*
X72133803Y-42603075D01*
X71906700Y-42471958D01*
X71906690Y-42471953D01*
X71664428Y-42371605D01*
X71664421Y-42371603D01*
X71664419Y-42371602D01*
X71411116Y-42303730D01*
X71353339Y-42296123D01*
X71151127Y-42269500D01*
X71151120Y-42269500D01*
X70888880Y-42269500D01*
X70888872Y-42269500D01*
X70657772Y-42299926D01*
X70628884Y-42303730D01*
X70375581Y-42371602D01*
X70375571Y-42371605D01*
X70133309Y-42471953D01*
X70133299Y-42471958D01*
X69906196Y-42603075D01*
X69698148Y-42762718D01*
X69512718Y-42948148D01*
X69353075Y-43156196D01*
X69221958Y-43383299D01*
X69221953Y-43383309D01*
X69121605Y-43625571D01*
X69121602Y-43625581D01*
X69053730Y-43878885D01*
X69019500Y-44138872D01*
X61500500Y-44138872D01*
X61500500Y-41624500D01*
X61520185Y-41557461D01*
X61572989Y-41511706D01*
X61624500Y-41500500D01*
X182375500Y-41500500D01*
X182442539Y-41520185D01*
G37*
G04 #@! TD.AperFunction*
G04 #@! TA.AperFunction,Conductor*
G36*
X129325782Y-102780185D02*
G01*
X129371537Y-102832989D01*
X129381481Y-102902147D01*
X129369228Y-102940795D01*
X129348444Y-102981585D01*
X129282753Y-103183760D01*
X129249500Y-103393713D01*
X129249500Y-103606286D01*
X129276075Y-103774077D01*
X129282754Y-103816243D01*
X129331740Y-103967007D01*
X129348444Y-104018414D01*
X129444951Y-104207820D01*
X129569890Y-104379786D01*
X129720213Y-104530109D01*
X129892182Y-104655050D01*
X129900946Y-104659516D01*
X129951742Y-104707491D01*
X129968536Y-104775312D01*
X129945998Y-104841447D01*
X129900946Y-104880484D01*
X129892182Y-104884949D01*
X129720213Y-105009890D01*
X129569890Y-105160213D01*
X129444951Y-105332179D01*
X129348444Y-105521585D01*
X129282753Y-105723760D01*
X129249500Y-105933713D01*
X129249500Y-106146286D01*
X129282753Y-106356239D01*
X129348444Y-106558414D01*
X129444951Y-106747820D01*
X129569890Y-106919786D01*
X129720213Y-107070109D01*
X129892179Y-107195048D01*
X129892181Y-107195049D01*
X129892184Y-107195051D01*
X129901493Y-107199794D01*
X129952290Y-107247766D01*
X129969087Y-107315587D01*
X129946552Y-107381722D01*
X129901505Y-107420760D01*
X129892446Y-107425376D01*
X129892440Y-107425380D01*
X129838282Y-107464727D01*
X129838282Y-107464728D01*
X130470591Y-108097037D01*
X130407007Y-108114075D01*
X130292993Y-108179901D01*
X130199901Y-108272993D01*
X130134075Y-108387007D01*
X130117037Y-108450591D01*
X129484728Y-107818282D01*
X129484727Y-107818282D01*
X129445380Y-107872439D01*
X129348904Y-108061782D01*
X129283242Y-108263869D01*
X129283242Y-108263872D01*
X129250000Y-108473753D01*
X129250000Y-108686246D01*
X129283242Y-108896127D01*
X129283242Y-108896130D01*
X129348904Y-109098217D01*
X129445375Y-109287550D01*
X129484728Y-109341716D01*
X130117037Y-108709408D01*
X130134075Y-108772993D01*
X130199901Y-108887007D01*
X130292993Y-108980099D01*
X130407007Y-109045925D01*
X130470590Y-109062962D01*
X129800370Y-109733181D01*
X129739047Y-109766666D01*
X129712698Y-109769500D01*
X129702134Y-109769500D01*
X129702123Y-109769501D01*
X129642516Y-109775908D01*
X129507671Y-109826202D01*
X129507664Y-109826206D01*
X129392455Y-109912452D01*
X129392452Y-109912455D01*
X129306206Y-110027664D01*
X129306202Y-110027671D01*
X129255908Y-110162517D01*
X129249501Y-110222116D01*
X129249500Y-110222135D01*
X129249500Y-110325500D01*
X129229815Y-110392539D01*
X129177011Y-110438294D01*
X129125500Y-110449500D01*
X128161018Y-110449500D01*
X128093979Y-110429815D01*
X128048224Y-110377011D01*
X128038280Y-110307853D01*
X128060700Y-110252615D01*
X128085012Y-110219150D01*
X128112287Y-110181610D01*
X128205220Y-109999219D01*
X128268477Y-109804534D01*
X128300500Y-109602352D01*
X128300500Y-109397648D01*
X128291641Y-109341716D01*
X128268477Y-109195465D01*
X128205218Y-109000776D01*
X128159596Y-108911239D01*
X128112287Y-108818390D01*
X128084606Y-108780290D01*
X127991971Y-108652786D01*
X127847213Y-108508028D01*
X127681613Y-108387715D01*
X127681612Y-108387714D01*
X127681610Y-108387713D01*
X127624653Y-108358691D01*
X127499223Y-108294781D01*
X127304534Y-108231522D01*
X127114013Y-108201347D01*
X127102352Y-108199500D01*
X126897648Y-108199500D01*
X126885987Y-108201347D01*
X126695465Y-108231522D01*
X126500776Y-108294781D01*
X126318386Y-108387715D01*
X126152786Y-108508028D01*
X126008028Y-108652786D01*
X125887715Y-108818386D01*
X125794781Y-109000776D01*
X125731522Y-109195465D01*
X125707903Y-109344594D01*
X125699500Y-109397648D01*
X125699500Y-109602352D01*
X125714217Y-109695269D01*
X125731523Y-109804535D01*
X125731523Y-109804538D01*
X125785995Y-109972182D01*
X125787990Y-110042023D01*
X125751910Y-110101856D01*
X125689209Y-110132684D01*
X125668064Y-110134500D01*
X123820200Y-110134500D01*
X123753161Y-110114815D01*
X123740634Y-110105506D01*
X123567820Y-109979951D01*
X123567115Y-109979591D01*
X123559054Y-109975485D01*
X123508259Y-109927512D01*
X123491463Y-109859692D01*
X123513999Y-109793556D01*
X123559054Y-109754515D01*
X123567816Y-109750051D01*
X123643216Y-109695270D01*
X123739786Y-109625109D01*
X123739788Y-109625106D01*
X123739792Y-109625104D01*
X123890104Y-109474792D01*
X123890106Y-109474788D01*
X123890109Y-109474786D01*
X124015048Y-109302820D01*
X124015047Y-109302820D01*
X124015051Y-109302816D01*
X124111557Y-109113412D01*
X124177246Y-108911243D01*
X124210500Y-108701287D01*
X124210500Y-108488713D01*
X124177246Y-108278757D01*
X124111557Y-108076588D01*
X124015051Y-107887184D01*
X124015049Y-107887181D01*
X124015048Y-107887179D01*
X123890109Y-107715213D01*
X123739786Y-107564890D01*
X123567820Y-107439951D01*
X123567115Y-107439591D01*
X123559054Y-107435485D01*
X123508259Y-107387512D01*
X123491463Y-107319692D01*
X123513999Y-107253556D01*
X123559054Y-107214515D01*
X123567816Y-107210051D01*
X123589789Y-107194086D01*
X123739786Y-107085109D01*
X123739788Y-107085106D01*
X123739792Y-107085104D01*
X123890104Y-106934792D01*
X123890106Y-106934788D01*
X123890109Y-106934786D01*
X124015048Y-106762820D01*
X124015047Y-106762820D01*
X124015051Y-106762816D01*
X124111557Y-106573412D01*
X124177246Y-106371243D01*
X124210500Y-106161287D01*
X124210500Y-105948713D01*
X124177246Y-105738757D01*
X124111557Y-105536588D01*
X124015051Y-105347184D01*
X124015049Y-105347181D01*
X124015048Y-105347179D01*
X123890109Y-105175213D01*
X123739786Y-105024890D01*
X123567820Y-104899951D01*
X123567115Y-104899591D01*
X123559054Y-104895485D01*
X123508259Y-104847512D01*
X123491463Y-104779692D01*
X123513999Y-104713556D01*
X123559054Y-104674515D01*
X123567816Y-104670051D01*
X123661045Y-104602317D01*
X123739786Y-104545109D01*
X123739788Y-104545106D01*
X123739792Y-104545104D01*
X123887214Y-104397682D01*
X125700000Y-104397682D01*
X125700000Y-104602317D01*
X125732009Y-104804417D01*
X125795244Y-104999031D01*
X125888141Y-105181350D01*
X125888147Y-105181359D01*
X125920523Y-105225921D01*
X125920524Y-105225922D01*
X126600000Y-104546446D01*
X126600000Y-104552661D01*
X126627259Y-104654394D01*
X126679920Y-104745606D01*
X126754394Y-104820080D01*
X126845606Y-104872741D01*
X126947339Y-104900000D01*
X126953553Y-104900000D01*
X126274076Y-105579474D01*
X126318650Y-105611859D01*
X126500968Y-105704755D01*
X126695582Y-105767990D01*
X126897683Y-105800000D01*
X127102317Y-105800000D01*
X127304417Y-105767990D01*
X127499031Y-105704755D01*
X127681349Y-105611859D01*
X127725921Y-105579474D01*
X127046447Y-104900000D01*
X127052661Y-104900000D01*
X127154394Y-104872741D01*
X127245606Y-104820080D01*
X127320080Y-104745606D01*
X127372741Y-104654394D01*
X127400000Y-104552661D01*
X127400000Y-104546448D01*
X128079474Y-105225922D01*
X128079474Y-105225921D01*
X128111859Y-105181349D01*
X128204755Y-104999031D01*
X128267990Y-104804417D01*
X128300000Y-104602317D01*
X128300000Y-104397682D01*
X128267990Y-104195582D01*
X128204755Y-104000968D01*
X128111859Y-103818650D01*
X128079474Y-103774077D01*
X128079474Y-103774076D01*
X127400000Y-104453551D01*
X127400000Y-104447339D01*
X127372741Y-104345606D01*
X127320080Y-104254394D01*
X127245606Y-104179920D01*
X127154394Y-104127259D01*
X127052661Y-104100000D01*
X127046446Y-104100000D01*
X127725922Y-103420524D01*
X127725921Y-103420523D01*
X127681359Y-103388147D01*
X127681350Y-103388141D01*
X127499031Y-103295244D01*
X127304417Y-103232009D01*
X127102317Y-103200000D01*
X126897683Y-103200000D01*
X126695582Y-103232009D01*
X126500968Y-103295244D01*
X126318644Y-103388143D01*
X126274077Y-103420523D01*
X126274077Y-103420524D01*
X126953554Y-104100000D01*
X126947339Y-104100000D01*
X126845606Y-104127259D01*
X126754394Y-104179920D01*
X126679920Y-104254394D01*
X126627259Y-104345606D01*
X126600000Y-104447339D01*
X126600000Y-104453553D01*
X125920524Y-103774077D01*
X125920523Y-103774077D01*
X125888143Y-103818644D01*
X125795244Y-104000968D01*
X125732009Y-104195582D01*
X125700000Y-104397682D01*
X123887214Y-104397682D01*
X123890104Y-104394792D01*
X124015051Y-104222816D01*
X124111557Y-104033412D01*
X124177246Y-103831243D01*
X124210500Y-103621287D01*
X124210500Y-103408713D01*
X124177246Y-103198757D01*
X124172178Y-103183159D01*
X124170183Y-103113318D01*
X124202425Y-103057165D01*
X124462773Y-102796816D01*
X124524095Y-102763334D01*
X124550453Y-102760500D01*
X129258743Y-102760500D01*
X129325782Y-102780185D01*
G37*
G04 #@! TD.AperFunction*
G04 #@! TA.AperFunction,Conductor*
G36*
X132674075Y-108772993D02*
G01*
X132739901Y-108887007D01*
X132832993Y-108980099D01*
X132947007Y-109045925D01*
X133010590Y-109062962D01*
X132378282Y-109695269D01*
X132378282Y-109695270D01*
X132432452Y-109734626D01*
X132432451Y-109734626D01*
X132441495Y-109739234D01*
X132492292Y-109787208D01*
X132509087Y-109855029D01*
X132486550Y-109921164D01*
X132441499Y-109960202D01*
X132432182Y-109964949D01*
X132256266Y-110092759D01*
X132255635Y-110091891D01*
X132236612Y-110100417D01*
X132214735Y-110114477D01*
X132200758Y-110116486D01*
X132196581Y-110118359D01*
X132179800Y-110119500D01*
X132014141Y-110119500D01*
X131947102Y-110099815D01*
X131901347Y-110047011D01*
X131897969Y-110038859D01*
X131893796Y-110027669D01*
X131893793Y-110027665D01*
X131893793Y-110027664D01*
X131807547Y-109912455D01*
X131807544Y-109912452D01*
X131692335Y-109826206D01*
X131692328Y-109826202D01*
X131557482Y-109775908D01*
X131557483Y-109775908D01*
X131497883Y-109769501D01*
X131497881Y-109769500D01*
X131497873Y-109769500D01*
X131497865Y-109769500D01*
X131487309Y-109769500D01*
X131420270Y-109749815D01*
X131399628Y-109733181D01*
X130729408Y-109062962D01*
X130792993Y-109045925D01*
X130907007Y-108980099D01*
X131000099Y-108887007D01*
X131065925Y-108772993D01*
X131082962Y-108709409D01*
X131715270Y-109341717D01*
X131715270Y-109341716D01*
X131754622Y-109287554D01*
X131759514Y-109277954D01*
X131807488Y-109227157D01*
X131875308Y-109210361D01*
X131941444Y-109232897D01*
X131980486Y-109277954D01*
X131985375Y-109287550D01*
X132024728Y-109341716D01*
X132657037Y-108709408D01*
X132674075Y-108772993D01*
G37*
G04 #@! TD.AperFunction*
G04 #@! TA.AperFunction,Conductor*
G36*
X131941444Y-106693999D02*
G01*
X131980486Y-106739056D01*
X131984951Y-106747820D01*
X132109890Y-106919786D01*
X132260213Y-107070109D01*
X132432179Y-107195048D01*
X132432181Y-107195049D01*
X132432184Y-107195051D01*
X132441493Y-107199794D01*
X132492290Y-107247766D01*
X132509087Y-107315587D01*
X132486552Y-107381722D01*
X132441505Y-107420760D01*
X132432446Y-107425376D01*
X132432440Y-107425380D01*
X132378282Y-107464727D01*
X132378282Y-107464728D01*
X133010591Y-108097037D01*
X132947007Y-108114075D01*
X132832993Y-108179901D01*
X132739901Y-108272993D01*
X132674075Y-108387007D01*
X132657037Y-108450591D01*
X132024728Y-107818282D01*
X132024727Y-107818282D01*
X131985380Y-107872440D01*
X131980483Y-107882051D01*
X131932506Y-107932845D01*
X131864684Y-107949638D01*
X131798550Y-107927098D01*
X131759516Y-107882048D01*
X131754626Y-107872452D01*
X131715270Y-107818282D01*
X131715269Y-107818282D01*
X131082962Y-108450590D01*
X131065925Y-108387007D01*
X131000099Y-108272993D01*
X130907007Y-108179901D01*
X130792993Y-108114075D01*
X130729409Y-108097037D01*
X131361716Y-107464728D01*
X131307547Y-107425373D01*
X131307547Y-107425372D01*
X131298500Y-107420763D01*
X131247706Y-107372788D01*
X131230912Y-107304966D01*
X131253451Y-107238832D01*
X131298508Y-107199793D01*
X131307816Y-107195051D01*
X131387007Y-107137515D01*
X131479786Y-107070109D01*
X131479788Y-107070106D01*
X131479792Y-107070104D01*
X131630104Y-106919792D01*
X131630106Y-106919788D01*
X131630109Y-106919786D01*
X131755048Y-106747820D01*
X131755047Y-106747820D01*
X131755051Y-106747816D01*
X131759514Y-106739054D01*
X131807488Y-106688259D01*
X131875308Y-106671463D01*
X131941444Y-106693999D01*
G37*
G04 #@! TD.AperFunction*
G04 #@! TA.AperFunction,Conductor*
G36*
X137619334Y-101669470D02*
G01*
X137675267Y-101711342D01*
X137683550Y-101733550D01*
X137700000Y-101750000D01*
X138566990Y-101750000D01*
X138534076Y-101807008D01*
X138500001Y-101934174D01*
X138500001Y-102065826D01*
X138534076Y-102192992D01*
X138566990Y-102250000D01*
X137700000Y-102250000D01*
X137700000Y-102847844D01*
X137706401Y-102907372D01*
X137706403Y-102907379D01*
X137756645Y-103042086D01*
X137756649Y-103042093D01*
X137842809Y-103157187D01*
X137842812Y-103157190D01*
X137957906Y-103243350D01*
X137957913Y-103243354D01*
X138092620Y-103293596D01*
X138092627Y-103293598D01*
X138152155Y-103299999D01*
X138152172Y-103300000D01*
X138750000Y-103300000D01*
X138750000Y-102433010D01*
X138807008Y-102465924D01*
X138934174Y-102499999D01*
X139065826Y-102499999D01*
X139192992Y-102465924D01*
X139250000Y-102433010D01*
X139250000Y-103300000D01*
X139251780Y-103301780D01*
X139312756Y-103319685D01*
X139358511Y-103372489D01*
X139368455Y-103441647D01*
X139339430Y-103505203D01*
X139333398Y-103511681D01*
X134630360Y-108214718D01*
X134569037Y-108248203D01*
X134499345Y-108243219D01*
X134443412Y-108201347D01*
X134424748Y-108165355D01*
X134391095Y-108061782D01*
X134294624Y-107872449D01*
X134255270Y-107818282D01*
X134255269Y-107818282D01*
X133622962Y-108450590D01*
X133605925Y-108387007D01*
X133540099Y-108272993D01*
X133447007Y-108179901D01*
X133332993Y-108114075D01*
X133269409Y-108097037D01*
X133901716Y-107464728D01*
X133847547Y-107425373D01*
X133847547Y-107425372D01*
X133838500Y-107420763D01*
X133787706Y-107372788D01*
X133770912Y-107304966D01*
X133793451Y-107238832D01*
X133838508Y-107199793D01*
X133847816Y-107195051D01*
X133927007Y-107137515D01*
X134019786Y-107070109D01*
X134019788Y-107070106D01*
X134019792Y-107070104D01*
X134170104Y-106919792D01*
X134170106Y-106919788D01*
X134170109Y-106919786D01*
X134295048Y-106747820D01*
X134295047Y-106747820D01*
X134295051Y-106747816D01*
X134391557Y-106558412D01*
X134457246Y-106356243D01*
X134490500Y-106146287D01*
X134490500Y-105933713D01*
X134457246Y-105723757D01*
X134391557Y-105521588D01*
X134295051Y-105332184D01*
X134217847Y-105225921D01*
X134171748Y-105162470D01*
X134148268Y-105096664D01*
X134164094Y-105028610D01*
X134184381Y-105001908D01*
X137488319Y-101697971D01*
X137549642Y-101664486D01*
X137619334Y-101669470D01*
G37*
G04 #@! TD.AperFunction*
M02*
