G04 #@! TF.GenerationSoftware,KiCad,Pcbnew,10.0.4*
G04 #@! TF.CreationDate,2026-07-17T21:57:44-04:00*
G04 #@! TF.ProjectId,amp,616d702e-6b69-4636-9164-5f7063625858,rev?*
G04 #@! TF.SameCoordinates,Original*
G04 #@! TF.FileFunction,Soldermask,Top*
G04 #@! TF.FilePolarity,Negative*
%FSLAX46Y46*%
G04 Gerber Fmt 4.6, Leading zero omitted, Abs format (unit mm)*
G04 Created by KiCad (PCBNEW 10.0.4) date 2026-07-17 21:57:44*
%MOMM*%
%LPD*%
G01*
G04 APERTURE LIST*
G04 Aperture macros list*
%AMRoundRect*
0 Rectangle with rounded corners*
0 $1 Rounding radius*
0 $2 $3 $4 $5 $6 $7 $8 $9 X,Y pos of 4 corners*
0 Add a 4 corners polygon primitive as box body*
4,1,4,$2,$3,$4,$5,$6,$7,$8,$9,$2,$3,0*
0 Add four circle primitives for the rounded corners*
1,1,$1+$1,$2,$3*
1,1,$1+$1,$4,$5*
1,1,$1+$1,$6,$7*
1,1,$1+$1,$8,$9*
0 Add four rect primitives between the rounded corners*
20,1,$1+$1,$2,$3,$4,$5,0*
20,1,$1+$1,$4,$5,$6,$7,0*
20,1,$1+$1,$6,$7,$8,$9,0*
20,1,$1+$1,$8,$9,$2,$3,0*%
G04 Aperture macros list end*
%ADD10R,1.600000X1.600000*%
%ADD11C,1.600000*%
%ADD12RoundRect,0.250000X-0.637151X-0.446138X0.446138X-0.637151X0.637151X0.446138X-0.446138X0.637151X0*%
%ADD13RoundRect,0.250000X0.550000X0.550000X-0.550000X0.550000X-0.550000X-0.550000X0.550000X-0.550000X0*%
%ADD14R,1.700000X1.700000*%
%ADD15C,1.700000*%
%ADD16C,3.000000*%
%ADD17O,4.500000X1.500000*%
G04 APERTURE END LIST*
D10*
X139000000Y-102000000D03*
D11*
X139000000Y-99500000D03*
X139000000Y-97000000D03*
X139000000Y-94500000D03*
D12*
X146000000Y-96000000D03*
D11*
X149446827Y-96607769D03*
D13*
X133367677Y-50500000D03*
D11*
X128367677Y-50500000D03*
X175813806Y-60629602D03*
X166000000Y-58000000D03*
D14*
X165780000Y-53500000D03*
D15*
X163240000Y-53500000D03*
X160700000Y-53500000D03*
X158160000Y-53500000D03*
X155620000Y-53500000D03*
X153080000Y-53500000D03*
X150540000Y-53500000D03*
X148000000Y-53500000D03*
D11*
X155000000Y-58500000D03*
X164813807Y-61129602D03*
X127000000Y-109500000D03*
X127000000Y-104500000D03*
X139500000Y-53000000D03*
X139500000Y-48000000D03*
D14*
X95500000Y-104160000D03*
D15*
X95500000Y-94000000D03*
X95500000Y-101620000D03*
X95500000Y-99080000D03*
X95500000Y-96540000D03*
D14*
X144000000Y-52500000D03*
D15*
X144000000Y-49960000D03*
D14*
X93500000Y-63000000D03*
D15*
X133140000Y-100960000D03*
X130600000Y-100960000D03*
X133140000Y-108580000D03*
X130600000Y-108580000D03*
X133140000Y-106040000D03*
X133140000Y-103500000D03*
X130600000Y-93340000D03*
X130600000Y-95880000D03*
X130600000Y-103500000D03*
X130600000Y-106040000D03*
X133140000Y-93340000D03*
X133140000Y-95880000D03*
X133140000Y-111120000D03*
D14*
X130600000Y-111120000D03*
D15*
X133140000Y-98420000D03*
X130600000Y-98420000D03*
D14*
X100000000Y-57795000D03*
D15*
X100000000Y-60335000D03*
X100000000Y-62875000D03*
X100000000Y-65415000D03*
X100000000Y-67955000D03*
X100000000Y-70495000D03*
X100000000Y-73035000D03*
X100000000Y-75575000D03*
X100000000Y-78115000D03*
X100000000Y-80655000D03*
X100000000Y-83195000D03*
X100000000Y-85735000D03*
X100000000Y-88275000D03*
X100000000Y-90815000D03*
X100000000Y-93355000D03*
X100000000Y-95895000D03*
X100000000Y-98435000D03*
X100000000Y-100975000D03*
X100000000Y-103515000D03*
X100000000Y-106055000D03*
X100000000Y-108595000D03*
X100000000Y-111135000D03*
D14*
X179230000Y-82280000D03*
D15*
X179230000Y-79740000D03*
X179230000Y-77200000D03*
X179230000Y-64500000D03*
X179230000Y-74660000D03*
X179230000Y-69580000D03*
X179230000Y-72120000D03*
X179230000Y-67040000D03*
D16*
X77350000Y-82661400D03*
X77370000Y-60500000D03*
X77350000Y-66431400D03*
X77370000Y-44270000D03*
X71000000Y-82661400D03*
X71020000Y-60500000D03*
X71000000Y-66431400D03*
X71020000Y-44270000D03*
X83700000Y-82661400D03*
X83720000Y-60500000D03*
X83700000Y-66431400D03*
X83720000Y-44270000D03*
D14*
X122860000Y-57795000D03*
D15*
X122860000Y-60335000D03*
X122860000Y-62875000D03*
X122860000Y-65415000D03*
X122860000Y-67955000D03*
X122860000Y-70495000D03*
X122860000Y-73035000D03*
X122860000Y-75575000D03*
X122860000Y-78115000D03*
X122860000Y-80655000D03*
X122860000Y-83195000D03*
X122860000Y-85735000D03*
X122860000Y-88275000D03*
X122860000Y-90815000D03*
X122860000Y-93355000D03*
X122860000Y-95895000D03*
X122860000Y-98435000D03*
X122860000Y-100975000D03*
X122860000Y-103515000D03*
X122860000Y-106055000D03*
X122860000Y-108595000D03*
X122860000Y-111135000D03*
D14*
X93500000Y-81000000D03*
D17*
X178000000Y-93900000D03*
X178000000Y-102700000D03*
X178000000Y-110000000D03*
M02*
