M48
; DRILL file KiCad 10.0.4 date 2026-07-17T21:57:50
; FORMAT={-:-/ absolute / metric / decimal}
; #@! TF.CreationDate,2026-07-17T21:57:50-04:00
; #@! TF.GenerationSoftware,Kicad,Pcbnew,10.0.4
; #@! TF.FileFunction,Plated,1,2,PTH
FMAT,2
METRIC
; #@! TA.AperFunction,Plated,PTH,ViaDrill
T1C0.300
; #@! TA.AperFunction,Plated,PTH,ComponentDrill
T2C0.800
; #@! TA.AperFunction,Plated,PTH,ComponentDrill
T3C1.000
; #@! TA.AperFunction,Plated,PTH,ComponentDrill
T4C1.000
; #@! TA.AperFunction,Plated,PTH,ComponentDrill
T5C1.400
%
G90
G05
T1
X64.5Y-56.5
X64.5Y-66.5
X65.0Y-46.0
X65.0Y-76.0
X65.0Y-86.5
X65.0Y-96.0
X65.0Y-106.0
X73.5Y-53.5
X75.0Y-96.0
X75.0Y-106.0
X85.0Y-86.0
X85.0Y-96.0
X85.0Y-106.0
X87.5Y-53.5
X95.0Y-46.0
X95.0Y-106.0
X111.0Y-46.0
X113.0Y-67.5
X113.5Y-55.5
X120.5Y-47.5
X125.0Y-112.5
X126.5Y-105.5
X128.195Y-83.195
X128.201Y-81.799
X129.5Y-63.0
X132.0Y-81.5
X132.25Y-83.25
X136.0Y-105.0
X137.5Y-60.0
X138.0Y-110.5
X139.5Y-45.5
X146.0Y-103.0
X146.0Y-110.5
X147.5Y-62.0
X157.5Y-55.5
X159.5Y-46.5
X163.0Y-60.0
X168.5Y-95.0
X169.0Y-46.5
X169.0Y-55.0
X171.5Y-98.0
X178.5Y-46.5
X178.5Y-55.0
X179.5Y-90.0
T2
X127.0Y-104.5
X127.0Y-109.5
X128.368Y-50.5
X133.368Y-50.5
X139.5Y-48.0
X139.5Y-53.0
X146.0Y-96.0
X149.447Y-96.608
X155.0Y-58.5
X164.814Y-61.13
X166.0Y-58.0
X175.814Y-60.63
T3
X139.0Y-94.5
X139.0Y-97.0
X139.0Y-99.5
X139.0Y-102.0
T4
X93.5Y-63.0
X93.5Y-81.0
X95.5Y-94.0
X95.5Y-96.54
X95.5Y-99.08
X95.5Y-101.62
X95.5Y-104.16
X100.0Y-57.795
X100.0Y-60.335
X100.0Y-62.875
X100.0Y-65.415
X100.0Y-67.955
X100.0Y-70.495
X100.0Y-73.035
X100.0Y-75.575
X100.0Y-78.115
X100.0Y-80.655
X100.0Y-83.195
X100.0Y-85.735
X100.0Y-88.275
X100.0Y-90.815
X100.0Y-93.355
X100.0Y-95.895
X100.0Y-98.435
X100.0Y-100.975
X100.0Y-103.515
X100.0Y-106.055
X100.0Y-108.595
X100.0Y-111.135
X122.86Y-57.795
X122.86Y-60.335
X122.86Y-62.875
X122.86Y-65.415
X122.86Y-67.955
X122.86Y-70.495
X122.86Y-73.035
X122.86Y-75.575
X122.86Y-78.115
X122.86Y-80.655
X122.86Y-83.195
X122.86Y-85.735
X122.86Y-88.275
X122.86Y-90.815
X122.86Y-93.355
X122.86Y-95.895
X122.86Y-98.435
X122.86Y-100.975
X122.86Y-103.515
X122.86Y-106.055
X122.86Y-108.595
X122.86Y-111.135
X130.6Y-93.34
X130.6Y-95.88
X130.6Y-98.42
X130.6Y-100.96
X130.6Y-103.5
X130.6Y-106.04
X130.6Y-108.58
X130.6Y-111.12
X133.14Y-93.34
X133.14Y-95.88
X133.14Y-98.42
X133.14Y-100.96
X133.14Y-103.5
X133.14Y-106.04
X133.14Y-108.58
X133.14Y-111.12
X144.0Y-49.96
X144.0Y-52.5
X148.0Y-53.5
X150.54Y-53.5
X153.08Y-53.5
X155.62Y-53.5
X158.16Y-53.5
X160.7Y-53.5
X163.24Y-53.5
X165.78Y-53.5
X179.23Y-64.5
X179.23Y-67.04
X179.23Y-69.58
X179.23Y-72.12
X179.23Y-74.66
X179.23Y-77.2
X179.23Y-79.74
X179.23Y-82.28
T5
X71.0Y-66.431
X71.0Y-82.661
X71.02Y-44.27
X71.02Y-60.5
X77.35Y-66.431
X77.35Y-82.661
X77.37Y-44.27
X77.37Y-60.5
X83.7Y-66.431
X83.7Y-82.661
X83.72Y-44.27
X83.72Y-60.5
T3
G00X176.65Y-93.9
M15
G01X179.35Y-93.9
M16
G05
G00X176.65Y-102.7
M15
G01X179.35Y-102.7
M16
G05
G00X176.65Y-110.0
M15
G01X179.35Y-110.0
M16
G05
M30
